<svg width="50" height="50" viewBox="0 0 50 50" fill="none" xmlns="http://www.w3.org/2000/svg">
<path d="M32.0312 8.59404H37.5C38.7984 8.59404 39.8438 9.63935 39.8438 10.9378V43.7503C39.8438 45.0487 38.7984 46.094 37.5 46.094H12.5C11.2016 46.094 10.1562 45.0487 10.1562 43.7503V10.9378C10.1562 9.63935 11.2016 8.59404 12.5 8.59404H17.9688H32.0312Z" fill="#8F74F6"/>
<path d="M25 6.2501C25.4315 6.2501 25.7812 5.90022 25.7812 5.46875C25.7812 5.03728 25.4315 4.6875 25 4.6875C24.5685 4.6875 24.2188 5.03728 24.2188 5.46875C24.2188 5.90022 24.5685 6.2501 25 6.2501Z" fill="#8F74F6"/>
<path d="M32.0312 11.719H35.1562C36.0219 11.719 36.7188 12.4159 36.7188 13.2815V41.4065C36.7188 42.2722 36.0219 42.969 35.1562 42.969H14.8438C13.9781 42.969 13.2812 42.2722 13.2812 41.4065V13.2815C13.2812 12.4159 13.9781 11.719 14.8438 11.719H17.9688" fill="#C4DEF9"/>
<path d="M28.5156 7.03159H32.0312V13.2816H17.9688V7.03159H21.4844H22.2937C21.5354 5.71815 21.8295 4.05002 22.9913 3.07517C24.153 2.10033 25.847 2.10033 27.0087 3.07517C28.1705 4.05002 28.4646 5.71815 27.7063 7.03159H28.5156Z" fill="#E3F0FF"/>
<path d="M25 1.56593C24.1066 1.56593 23.2125 1.87075 22.4884 2.47841C21.3627 3.42294 21.1224 4.87148 21.4111 6.25038H17.9688C17.7616 6.2504 17.5629 6.33271 17.4163 6.47922C17.2698 6.62572 17.1875 6.82444 17.1875 7.03163V7.81288H12.5C10.7823 7.81288 9.375 9.22023 9.375 10.9379V43.7504C9.375 45.4682 10.7823 46.8754 12.5 46.8754H37.5C39.2177 46.8754 40.625 45.4682 40.625 43.7504V10.9379C40.625 9.22023 39.2177 7.81288 37.5 7.81288H32.8125V7.03163C32.8125 6.82444 32.7302 6.62572 32.5837 6.47922C32.4371 6.33271 32.2384 6.2504 32.0312 6.25038H28.5889C28.8776 4.87148 28.6373 3.42294 27.5116 2.47841C26.7875 1.87075 25.8934 1.56593 25 1.56593V1.56593ZM25 3.12538C25.5344 3.12538 26.0699 3.30751 26.5076 3.6747C27.3829 4.40923 27.6008 5.65148 27.0294 6.64101C26.9608 6.75984 26.9248 6.89466 26.9248 7.03187C26.9249 7.16908 26.961 7.30381 27.0297 7.42259C27.0984 7.54137 27.1971 7.63999 27.316 7.7085C27.4349 7.77701 27.5697 7.81302 27.7069 7.81288H28.5156H31.25V8.46901C31.2362 8.55288 31.2362 8.63844 31.25 8.72231V11.594C31.2362 11.6779 31.2362 11.7634 31.25 11.8473V12.5004H18.75V11.8412C18.7634 11.7583 18.7634 11.6738 18.75 11.591V8.7162C18.7634 8.63333 18.7634 8.54883 18.75 8.46596V7.81288H21.4844H22.2931C22.4303 7.81302 22.5651 7.77701 22.684 7.7085C22.8029 7.63999 22.9016 7.54137 22.9703 7.42259C23.039 7.30381 23.0751 7.16908 23.0752 7.03187C23.0752 6.89466 23.0392 6.75984 22.9706 6.64101C22.3992 5.65148 22.6171 4.40923 23.4924 3.6747C23.9301 3.30751 24.4656 3.12538 25 3.12538V3.12538ZM12.5 9.37538H17.1875V10.9379H14.8438C13.5588 10.9379 12.5 11.9968 12.5 13.2816V41.4066C12.5 42.6916 13.5588 43.7504 14.8438 43.7504H35.1562C36.4412 43.7504 37.5 42.6916 37.5 41.4066V13.2816C37.5 11.9968 36.4412 10.9379 35.1562 10.9379H32.8125V9.37538H37.5C38.3791 9.37538 39.0625 10.0588 39.0625 10.9379V43.7504C39.0625 44.6296 38.3791 45.3129 37.5 45.3129H12.5C11.6209 45.3129 10.9375 44.6296 10.9375 43.7504V10.9379C10.9375 10.0588 11.6209 9.37538 12.5 9.37538ZM14.8438 12.5004H17.1875V13.2816C17.1875 13.4888 17.2698 13.6875 17.4163 13.834C17.5629 13.9806 17.7616 14.0629 17.9688 14.0629H32.0312C32.2384 14.0629 32.4371 13.9806 32.5837 13.834C32.7302 13.6875 32.8125 13.4888 32.8125 13.2816V12.5004H35.1562C35.6026 12.5004 35.9375 12.8354 35.9375 13.2816V41.4066C35.9375 41.853 35.6026 42.1879 35.1562 42.1879H14.8438C14.3974 42.1879 14.0625 41.853 14.0625 41.4066V13.2816C14.0625 12.8354 14.3974 12.5004 14.8438 12.5004ZM16.4185 17.1879C16.3149 17.1864 16.2122 17.2055 16.1161 17.2441C16.02 17.2828 15.9326 17.3401 15.8588 17.4128C15.7851 17.4854 15.7266 17.5721 15.6866 17.6676C15.6467 17.7631 15.6261 17.8656 15.6261 17.9691C15.6261 18.0727 15.6467 18.1752 15.6866 18.2707C15.7266 18.3662 15.7851 18.4528 15.8588 18.5255C15.9326 18.5982 16.02 18.6555 16.1161 18.6941C16.2122 18.7327 16.3149 18.7518 16.4185 18.7504H17.9565C18.0601 18.7518 18.1628 18.7327 18.2589 18.6941C18.355 18.6555 18.4424 18.5982 18.5162 18.5255C18.5899 18.4528 18.6484 18.3662 18.6884 18.2707C18.7283 18.1752 18.7489 18.0727 18.7489 17.9691C18.7489 17.8656 18.7283 17.7631 18.6884 17.6676C18.6484 17.5721 18.5899 17.4854 18.5162 17.4128C18.4424 17.3401 18.355 17.2828 18.2589 17.2441C18.1628 17.2055 18.0601 17.1864 17.9565 17.1879H16.4185ZM21.1029 17.1879C20.9994 17.1864 20.8966 17.2055 20.8005 17.2441C20.7045 17.2828 20.617 17.3401 20.5433 17.4128C20.4696 17.4854 20.411 17.5721 20.3711 17.6676C20.3311 17.7631 20.3105 17.8656 20.3105 17.9691C20.3105 18.0727 20.3311 18.1752 20.3711 18.2707C20.411 18.3662 20.4696 18.4528 20.5433 18.5255C20.617 18.5982 20.7045 18.6555 20.8005 18.6941C20.8966 18.7327 20.9994 18.7518 21.1029 18.7504H28.894C28.9976 18.7518 29.1004 18.7327 29.1964 18.6941C29.2925 18.6555 29.3799 18.5982 29.4537 18.5255C29.5274 18.4528 29.5859 18.3662 29.6259 18.2707C29.6658 18.1752 29.6864 18.0727 29.6864 17.9691C29.6864 17.8656 29.6658 17.7631 29.6259 17.6676C29.5859 17.5721 29.5274 17.4854 29.4537 17.4128C29.3799 17.3401 29.2925 17.2828 29.1964 17.2441C29.1004 17.2055 28.9976 17.1864 28.894 17.1879H21.1029ZM16.4185 21.8754C16.3149 21.8739 16.2122 21.893 16.1161 21.9316C16.02 21.9703 15.9326 22.0276 15.8588 22.1003C15.7851 22.1729 15.7266 22.2596 15.6866 22.3551C15.6467 22.4506 15.6261 22.5531 15.6261 22.6566C15.6261 22.7602 15.6467 22.8627 15.6866 22.9582C15.7266 23.0537 15.7851 23.1403 15.8588 23.213C15.9326 23.2857 16.02 23.343 16.1161 23.3816C16.2122 23.4202 16.3149 23.4393 16.4185 23.4379H17.9565C18.0601 23.4393 18.1628 23.4202 18.2589 23.3816C18.355 23.343 18.4424 23.2857 18.5162 23.213C18.5899 23.1403 18.6484 23.0537 18.6884 22.9582C18.7283 22.8627 18.7489 22.7602 18.7489 22.6566C18.7489 22.5531 18.7283 22.4506 18.6884 22.3551C18.6484 22.2596 18.5899 22.1729 18.5162 22.1003C18.4424 22.0276 18.355 21.9703 18.2589 21.9316C18.1628 21.893 18.0601 21.8739 17.9565 21.8754H16.4185ZM21.1029 21.8754C20.9994 21.8739 20.8966 21.893 20.8005 21.9316C20.7045 21.9703 20.617 22.0276 20.5433 22.1003C20.4696 22.1729 20.411 22.2596 20.3711 22.3551C20.3311 22.4506 20.3105 22.5531 20.3105 22.6566C20.3105 22.7602 20.3311 22.8627 20.3711 22.9582C20.411 23.0537 20.4696 23.1403 20.5433 23.213C20.617 23.2857 20.7045 23.343 20.8005 23.3816C20.8966 23.4202 20.9994 23.4393 21.1029 23.4379H28.894C28.9976 23.4393 29.1004 23.4202 29.1964 23.3816C29.2925 23.343 29.3799 23.2857 29.4537 23.213C29.5274 23.1403 29.5859 23.0537 29.6259 22.9582C29.6658 22.8627 29.6864 22.7602 29.6864 22.6566C29.6864 22.5531 29.6658 22.4506 29.6259 22.3551C29.5859 22.2596 29.5274 22.1729 29.4537 22.1003C29.3799 22.0276 29.2925 21.9703 29.1964 21.9316C29.1004 21.893 28.9976 21.8739 28.894 21.8754H21.1029ZM16.4185 26.5629C16.3149 26.5614 16.2122 26.5805 16.1161 26.6191C16.02 26.6578 15.9326 26.7151 15.8588 26.7878C15.7851 26.8604 15.7266 26.9471 15.6866 27.0426C15.6467 27.1381 15.6261 27.2406 15.6261 27.3441C15.6261 27.4477 15.6467 27.5502 15.6866 27.6457C15.7266 27.7412 15.7851 27.8278 15.8588 27.9005C15.9326 27.9732 16.02 28.0305 16.1161 28.0691C16.2122 28.1077 16.3149 28.1268 16.4185 28.1254H17.9565C18.0601 28.1268 18.1628 28.1077 18.2589 28.0691C18.355 28.0305 18.4424 27.9732 18.5162 27.9005C18.5899 27.8278 18.6484 27.7412 18.6884 27.6457C18.7283 27.5502 18.7489 27.4477 18.7489 27.3441C18.7489 27.2406 18.7283 27.1381 18.6884 27.0426C18.6484 26.9471 18.5899 26.8604 18.5162 26.7878C18.4424 26.7151 18.355 26.6578 18.2589 26.6191C18.1628 26.5805 18.0601 26.5614 17.9565 26.5629H16.4185ZM21.1029 26.5629C20.9994 26.5614 20.8966 26.5805 20.8005 26.6191C20.7045 26.6578 20.617 26.7151 20.5433 26.7878C20.4696 26.8604 20.411 26.9471 20.3711 27.0426C20.3311 27.1381 20.3105 27.2406 20.3105 27.3441C20.3105 27.4477 20.3311 27.5502 20.3711 27.6457C20.411 27.7412 20.4696 27.8278 20.5433 27.9005C20.617 27.9732 20.7045 28.0305 20.8005 28.0691C20.8966 28.1077 20.9994 28.1268 21.1029 28.1254H28.894C28.9976 28.1268 29.1004 28.1077 29.1964 28.0691C29.2925 28.0305 29.3799 27.9732 29.4537 27.9005C29.5274 27.8278 29.5859 27.7412 29.6259 27.6457C29.6658 27.5502 29.6864 27.4477 29.6864 27.3441C29.6864 27.2406 29.6658 27.1381 29.6259 27.0426C29.5859 26.9471 29.5274 26.8604 29.4537 26.7878C29.3799 26.7151 29.2925 26.6578 29.1964 26.6191C29.1004 26.5805 28.9976 26.5614 28.894 26.5629H21.1029ZM25.7812 34.3754C25.3212 34.3762 24.99 34.5884 24.7345 34.7965C24.479 35.0046 24.2773 35.2418 24.1058 35.4679C23.7629 35.9204 23.5382 36.359 23.5382 36.359C23.443 36.5427 23.4246 36.7566 23.4869 36.9538C23.5491 37.1511 23.6871 37.3156 23.8704 37.4113C24.0538 37.507 24.2676 37.5261 24.4651 37.4645C24.6625 37.4028 24.8274 37.2654 24.9237 37.0823C24.9237 37.0823 25.102 36.7393 25.351 36.4109C25.4681 36.2562 25.5999 36.1198 25.7019 36.0325C25.747 36.1075 25.7846 36.1655 25.8514 36.2949C25.9533 36.4931 26.0687 36.7362 26.2817 36.9846C26.4948 37.2332 26.8878 37.5004 27.3437 37.5004C27.7995 37.5004 28.1927 37.2332 28.4058 36.9846C28.6188 36.7362 28.7343 36.496 28.8361 36.298C28.8672 36.2371 28.8786 36.226 28.9062 36.176C28.9339 36.226 28.9453 36.2371 28.9764 36.298C29.0782 36.496 29.1937 36.7362 29.4067 36.9846C29.6198 37.2332 30.013 37.5004 30.4687 37.5004C30.9243 37.5004 31.3178 37.2332 31.5307 36.9846C31.7437 36.7362 31.8594 36.4958 31.961 36.298C32.0292 36.1652 32.0683 36.1038 32.1136 36.0294C32.2187 36.1169 32.3552 36.2592 32.4768 36.417C32.7308 36.7465 32.9163 37.0884 32.9163 37.0884C32.9613 37.1844 33.0254 37.2702 33.1046 37.3407C33.1839 37.4111 33.2767 37.4647 33.3773 37.4981C33.4779 37.5316 33.5843 37.5441 33.69 37.5351C33.7956 37.5261 33.8984 37.4957 33.9919 37.4457C34.0854 37.3958 34.1678 37.3273 34.234 37.2445C34.3002 37.1616 34.3489 37.0662 34.377 36.9639C34.4051 36.8617 34.4121 36.7548 34.3976 36.6498C34.3831 36.5447 34.3474 36.4437 34.2926 36.3529C34.2926 36.3529 34.0611 35.9138 33.7128 35.4618C33.5386 35.2359 33.3356 35.0005 33.078 34.7935C32.8204 34.5864 32.4919 34.3746 32.0312 34.3754C31.5713 34.3762 31.1836 34.6595 30.9814 34.9064C30.7793 35.1531 30.6715 35.3912 30.5725 35.5839C30.5269 35.6729 30.5061 35.6965 30.4687 35.7609C30.4312 35.6968 30.4109 35.6703 30.365 35.5808C30.2659 35.3882 30.1582 35.1531 29.956 34.9064C29.7539 34.6595 29.3666 34.3754 28.9062 34.3754C28.4459 34.3754 28.0585 34.6595 27.8564 34.9064C27.6543 35.1531 27.5466 35.3882 27.4475 35.5808C27.4022 35.6683 27.3809 35.6933 27.3437 35.7578C27.3065 35.6938 27.2853 35.6688 27.24 35.5808C27.1408 35.3882 27.0331 35.1531 26.831 34.9064C26.629 34.6597 26.242 34.3746 25.7812 34.3754H25.7812ZM24.231 39.0629C24.1274 39.0614 24.0247 39.0805 23.9286 39.1191C23.8325 39.1578 23.7451 39.2151 23.6713 39.2878C23.5976 39.3604 23.5391 39.4471 23.4991 39.5426C23.4592 39.6381 23.4386 39.7406 23.4386 39.8441C23.4386 39.9477 23.4592 40.0502 23.4991 40.1457C23.5391 40.2412 23.5976 40.3278 23.6713 40.4005C23.7451 40.4732 23.8325 40.5305 23.9286 40.5691C24.0247 40.6077 24.1274 40.6268 24.231 40.6254H33.606C33.7095 40.6268 33.8123 40.6077 33.9083 40.5691C34.0044 40.5305 34.0918 40.4732 34.1656 40.4005C34.2393 40.3278 34.2978 40.2412 34.3378 40.1457C34.3778 40.0502 34.3983 39.9477 34.3983 39.8441C34.3983 39.7406 34.3778 39.6381 34.3378 39.5426C34.2978 39.4471 34.2393 39.3604 34.1656 39.2878C34.0918 39.2151 34.0044 39.1578 33.9083 39.1191C33.8123 39.0805 33.7095 39.0614 33.606 39.0629H24.231Z" fill="#8F74F6"/>
</svg>
