<svg width="50" height="50" viewBox="0 0 50 50" fill="none" xmlns="http://www.w3.org/2000/svg">
<path d="M35.4167 12.5H31.25V8.33333H35.4167C35.9692 8.33333 36.4991 8.11384 36.8898 7.72314C37.2805 7.33244 37.5 6.80253 37.5 6.25C37.5 5.69746 37.2805 5.16756 36.8898 4.77686C36.4991 4.38616 35.9692 4.16666 35.4167 4.16666H18.75C15.9873 4.16666 13.3378 5.26413 11.3843 7.21764C9.4308 9.17114 8.33334 11.8207 8.33334 14.5833V43.75C8.33334 44.3025 8.55283 44.8324 8.94353 45.2231C9.33423 45.6138 9.86413 45.8333 10.4167 45.8333C10.9692 45.8333 11.4991 45.6138 11.8898 45.2231C12.2805 44.8324 12.5 44.3025 12.5 43.75V14.5833C12.5 12.9257 13.1585 11.336 14.3306 10.1639C15.5027 8.99181 17.0924 8.33333 18.75 8.33333H27.0833V12.5H22.9167C21.2591 12.5 19.6694 13.1585 18.4972 14.3306C17.3251 15.5027 16.6667 17.0924 16.6667 18.75V29.0208C16.6663 30.0519 16.921 31.067 17.4081 31.9758C17.8952 32.8845 18.5995 33.6586 19.4583 34.2292L22.9167 36.5417V37.5C22.9167 38.6051 23.3557 39.6649 24.1371 40.4463C24.9185 41.2277 25.9783 41.6667 27.0833 41.6667V43.75C27.0833 44.3025 27.3028 44.8324 27.6935 45.2231C28.0842 45.6138 28.6141 45.8333 29.1667 45.8333C29.7192 45.8333 30.2491 45.6138 30.6398 45.2231C31.0305 44.8324 31.25 44.3025 31.25 43.75V41.6667C32.3551 41.6667 33.4149 41.2277 34.1963 40.4463C34.9777 39.6649 35.4167 38.6051 35.4167 37.5V36.5417L38.875 34.2292C39.7338 33.6586 40.4382 32.8845 40.9253 31.9758C41.4123 31.067 41.667 30.0519 41.6667 29.0208V18.75C41.6667 17.0924 41.0082 15.5027 39.8361 14.3306C38.664 13.1585 37.0743 12.5 35.4167 12.5ZM33.3333 22.9167H37.5V25H35.4167C34.8641 25 34.3342 25.2195 33.9435 25.6102C33.5528 26.0009 33.3333 26.5308 33.3333 27.0833C33.3333 27.6359 33.5528 28.1658 33.9435 28.5565C34.3342 28.9472 34.8641 29.1667 35.4167 29.1667H37.5C37.4778 29.4829 37.3836 29.79 37.2248 30.0643C37.0659 30.3387 36.8465 30.5732 36.5833 30.75L32.2083 33.6875C31.9179 33.8738 31.6783 34.1294 31.511 34.4312C31.3437 34.733 31.254 35.0716 31.25 35.4167V37.5H27.0833V35.4167C27.0816 35.0735 26.9951 34.7361 26.8315 34.4345C26.668 34.1328 26.4324 33.8762 26.1458 33.6875L21.7708 30.75C21.4842 30.5613 21.2487 30.3047 21.0852 30.003C20.9216 29.7014 20.8351 29.364 20.8333 29.0208V18.75C20.8333 18.1975 21.0528 17.6676 21.4435 17.2769C21.8342 16.8862 22.3641 16.6667 22.9167 16.6667H35.4167C35.9692 16.6667 36.4991 16.8862 36.8898 17.2769C37.2805 17.6676 37.5 18.1975 37.5 18.75H33.3333C32.7808 18.75 32.2509 18.9695 31.8602 19.3602C31.4695 19.7509 31.25 20.2808 31.25 20.8333C31.25 21.3859 31.4695 21.9158 31.8602 22.3065C32.2509 22.6972 32.7808 22.9167 33.3333 22.9167V22.9167Z" fill="#8F74F6"/>
</svg>
