<svg width="50" height="50" viewBox="0 0 50 50" fill="none" xmlns="http://www.w3.org/2000/svg">
<path d="M7.144 17.7147C6.7375 17.7156 6.3459 17.5617 6.04873 17.2844C5.75156 17.007 5.5711 16.6269 5.544 16.2213C5.44427 14.5406 6.01086 12.8883 7.12098 11.6225C8.23109 10.3566 9.79532 9.57918 11.4747 9.45867C12.2756 9.41307 13.0781 9.51429 13.8427 9.75734C14.0537 9.812 14.2514 9.90923 14.4235 10.0431C14.5957 10.1769 14.7387 10.3445 14.8437 10.5356C14.9487 10.7266 15.0136 10.9372 15.0343 11.1542C15.055 11.3713 15.0311 11.5903 14.9641 11.7977C14.8972 12.0052 14.7885 12.1969 14.6448 12.3608C14.5011 12.5248 14.3253 12.6577 14.1284 12.7513C13.9315 12.8449 13.7175 12.8973 13.4996 12.9052C13.2817 12.9131 13.0645 12.8764 12.8613 12.7973C12.3719 12.6485 11.8539 12.6192 11.3508 12.7118C10.8477 12.8045 10.3741 13.0164 9.9698 13.3298C9.56549 13.6432 9.24221 14.049 9.02707 14.5132C8.81193 14.9773 8.7112 15.4862 8.73333 15.9973C8.74782 16.2075 8.72064 16.4186 8.65335 16.6182C8.58606 16.8179 8.48 17.0023 8.34124 17.1609C8.20248 17.3195 8.03377 17.4491 7.84479 17.5423C7.65581 17.6355 7.45028 17.6905 7.24 17.704L7.144 17.7147Z" fill="#8F74F6"/>
<path d="M41.3307 17.2667C41.0386 17.2571 40.7546 17.1688 40.5086 17.0111C40.2627 16.8533 40.0639 16.6321 39.9333 16.3707C37.416 11.208 34.472 9.78934 29.2667 8.72267C25.8107 8.02934 19.5387 7.88001 17.0427 9.78934C16.336 10.225 15.7238 10.7976 15.2419 11.4736C14.7601 12.1496 14.4186 12.9152 14.2373 13.7253C14.1981 13.932 14.1186 14.1288 14.0033 14.3047C13.888 14.4806 13.7392 14.632 13.5653 14.7504C13.3915 14.8687 13.1961 14.9517 12.9902 14.9945C12.7843 15.0374 12.5719 15.0392 12.3653 15C12.1587 14.9608 11.9619 14.8813 11.786 14.7659C11.6101 14.6506 11.4587 14.5018 11.3403 14.328C11.2219 14.1542 11.139 13.9587 11.0961 13.7528C11.0533 13.5469 11.0514 13.3346 11.0907 13.128C11.6072 10.7225 13.0424 8.61367 15.0907 7.25067C18.9733 4.23201 27.048 5.02134 29.8213 5.58667C35.6667 6.78134 39.7093 8.70134 42.7707 14.9627C42.8633 15.1509 42.9177 15.3556 42.9308 15.565C42.9439 15.7744 42.9154 15.9843 42.847 16.1826C42.7786 16.381 42.6716 16.5638 42.5322 16.7205C42.3927 16.8773 42.2237 17.0049 42.0347 17.096C41.8171 17.2086 41.5756 17.2671 41.3307 17.2667V17.2667ZM6.28 31.2827C5.95737 31.2795 5.64253 31.1832 5.37333 31.0053C3.32533 29.5867 1.26666 26.4827 1.52266 23.5387C1.77866 20.5947 3.90133 15.9973 8.616 15.688C8.82611 15.6747 9.03679 15.7029 9.236 15.771C9.43522 15.8391 9.61906 15.9458 9.77705 16.085C9.93503 16.2241 10.0641 16.3931 10.1568 16.5821C10.2495 16.7711 10.304 16.9766 10.3173 17.1867C10.3306 17.3968 10.3024 17.6075 10.2343 17.8067C10.1662 18.0059 10.0595 18.1897 9.92036 18.3477C9.78119 18.5057 9.61227 18.6347 9.42324 18.7274C9.23422 18.8201 9.02878 18.8747 8.81866 18.888C6.03466 19.0693 4.82933 22.344 4.712 23.8053C4.7551 24.7018 5.00002 25.577 5.4285 26.3656C5.85699 27.1543 6.45798 27.836 7.18666 28.36C7.46991 28.5528 7.68378 28.8314 7.79681 29.1549C7.90984 29.4783 7.91605 29.8295 7.81453 30.1567C7.71302 30.484 7.50913 30.77 7.23288 30.9727C6.95664 31.1754 6.62262 31.284 6.28 31.2827V31.2827Z" fill="#8F74F6"/>
<path d="M43.1333 28.2C42.7616 28.2015 42.4009 28.0736 42.1132 27.8381C41.8256 27.6026 41.6289 27.2743 41.557 26.9096C41.485 26.5449 41.5423 26.1665 41.719 25.8394C41.8958 25.5124 42.1808 25.2571 42.5253 25.1173C43.3593 24.768 44.0218 24.104 44.3693 23.2693C44.7168 22.4346 44.7211 21.4965 44.3813 20.6587C44.0827 19.9013 41.8107 17.4587 39.8053 18.1733C39.5984 18.2693 39.3733 18.3199 39.1451 18.3218C38.917 18.3236 38.6911 18.2766 38.4827 18.184C38.2742 18.0914 38.0879 17.9553 37.9363 17.7847C37.7848 17.6142 37.6714 17.4133 37.6039 17.1954C37.5364 16.9775 37.5163 16.7476 37.5448 16.5213C37.5734 16.295 37.6501 16.0773 37.7697 15.8831C37.8893 15.6888 38.049 15.5223 38.2382 15.3949C38.4274 15.2674 38.6417 15.1819 38.8667 15.144C42.7707 13.8533 46.568 17.2773 47.4 19.4853C48.0469 21.1061 48.0302 22.9163 47.3536 24.5249C46.677 26.1335 45.3949 27.4115 43.784 28.0827C43.578 28.1679 43.3561 28.2079 43.1333 28.2Z" fill="#8F74F6"/>
<path d="M39.0053 38.9946C38.581 39.0371 38.1572 38.9092 37.8271 38.6392C37.497 38.3691 37.2878 37.979 37.2453 37.5546C37.2029 37.1303 37.3308 36.7065 37.6008 36.3764C37.8709 36.0463 38.261 35.8371 38.6853 35.7946C40.5994 35.4549 42.3991 34.6448 43.9227 33.4373C44.9253 32.5733 45.416 31.6667 45.2773 30.952C44.9573 29.3627 41.4907 28.2 37.3307 29.0427C35.8222 29.3209 34.3766 29.8702 33.064 30.664C32.7147 30.8048 32.3269 30.8179 31.9689 30.7009C31.6109 30.584 31.3056 30.3445 31.1068 30.0246C30.908 29.7048 30.8284 29.325 30.8821 28.9522C30.9357 28.5794 31.1191 28.2375 31.4 27.9867C33.0405 26.9896 34.8471 26.2958 36.7333 25.9387C42.568 24.7653 47.7093 26.7067 48.4667 30.3547C48.8507 32.264 47.9973 34.2373 46.056 35.9013C44.1198 37.4618 41.8246 38.5141 39.3787 38.9626L39.0053 38.9946ZM11.4213 36.84C10.6974 36.8411 9.97765 36.7296 9.288 36.5093C8.43318 36.2493 7.64229 35.8131 6.96623 35.2289C6.29017 34.6447 5.74393 33.9254 5.36267 33.1173C4.296 30.6853 4.392 28.744 5.88534 25.928C6.08478 25.5531 6.42496 25.2729 6.83104 25.1489C7.23711 25.0248 7.67583 25.0672 8.05067 25.2667C8.42551 25.4661 8.70577 25.8063 8.82979 26.2124C8.95381 26.6184 8.91144 27.0571 8.712 27.432C7.58133 29.5653 7.64534 30.44 8.27467 31.7733C8.46765 32.1765 8.74295 32.5347 9.08283 32.825C9.4227 33.1153 9.81962 33.3311 10.248 33.4587C11.247 33.7626 12.3235 33.6827 13.2667 33.2347C13.4584 33.1365 13.668 33.078 13.8829 33.0628C14.0978 33.0476 14.3136 33.0759 14.5172 33.1461C14.7209 33.2163 14.9083 33.3269 15.0682 33.4712C15.2281 33.6156 15.3572 33.7908 15.4477 33.9863C15.5383 34.1817 15.5884 34.3935 15.5951 34.6088C15.6019 34.8241 15.5651 35.0386 15.4869 35.2393C15.4087 35.4401 15.2908 35.623 15.1403 35.7771C14.9897 35.9311 14.8096 36.0532 14.6107 36.136C13.6125 36.6031 12.5234 36.8436 11.4213 36.84V36.84Z" fill="#8F74F6"/>
<path d="M20.1893 39.1867C18.6967 39.2181 17.2331 38.7712 16.0125 37.9115C14.792 37.0517 13.8784 35.8241 13.4053 34.408C13.3226 34.2002 13.2844 33.9774 13.2931 33.7539C13.3018 33.5304 13.3573 33.3112 13.4559 33.1105C13.5546 32.9098 13.6942 32.7319 13.8659 32.5885C14.0375 32.4451 14.2373 32.3392 14.4523 32.2778C14.6674 32.2163 14.8929 32.2007 15.1144 32.2318C15.3359 32.2629 15.5484 32.3401 15.7382 32.4584C15.928 32.5767 16.0909 32.7335 16.2164 32.9187C16.3419 33.1038 16.4271 33.3132 16.4667 33.5333C16.7581 34.3362 17.311 35.0177 18.0364 35.4685C18.7619 35.9192 19.6178 36.113 20.4667 36.0187C21.5055 35.9611 22.4861 35.5202 23.2187 34.7813C23.5177 34.493 23.9171 34.3323 24.3325 34.3331C24.7479 34.3339 25.1467 34.4963 25.4445 34.7858C25.7424 35.0754 25.916 35.4694 25.9286 35.8846C25.9411 36.2998 25.7918 36.7036 25.512 37.0107C24.2416 38.2969 22.5384 39.0649 20.7333 39.1653L20.1893 39.1867Z" fill="#8F74F6"/>
<path d="M37.8 44.9467C35.9547 44.9467 34.6 43.208 34.1627 42.6C32.8589 40.9144 31.4517 39.3113 29.9493 37.8C29.1216 38.349 28.1666 38.6759 27.176 38.7493C26.4405 38.7993 25.7024 38.7024 25.0047 38.4644C24.3069 38.2263 23.6636 37.8518 23.112 37.3627C22.7937 37.0798 22.6009 36.682 22.5759 36.2569C22.5509 35.8319 22.6958 35.4143 22.9787 35.096C23.2616 34.7777 23.6593 34.5849 24.0844 34.5599C24.5095 34.5349 24.9271 34.6798 25.2453 34.9627C25.4812 35.1717 25.7566 35.3313 26.0552 35.4321C26.3539 35.5329 26.6697 35.5727 26.984 35.5493C27.3245 35.5233 27.6556 35.4252 27.9554 35.2615C28.2551 35.0978 28.5166 34.8724 28.7227 34.6C28.8584 34.4246 29.0289 34.2791 29.2234 34.1726C29.418 34.0662 29.6324 34.0011 29.8533 33.9813C30.0763 33.9621 30.3008 33.9901 30.5122 34.0636C30.7236 34.1372 30.9171 34.2545 31.08 34.408C33.098 36.3407 34.9632 38.4269 36.6587 40.648C37.4053 41.6187 37.7253 41.7147 37.8 41.7147C37.8747 41.7147 38.76 41.1813 40.0933 36.1787C40.2022 35.7685 40.4697 35.4183 40.8367 35.2053C41.2038 34.9922 41.6405 34.9337 42.0507 35.0427C42.4609 35.1516 42.811 35.419 43.024 35.7861C43.2371 36.1531 43.2956 36.5898 43.1867 37C41.832 42.0987 40.3813 44.4667 38.344 44.8507C38.1664 44.9009 37.9841 44.9331 37.8 44.9467V44.9467Z" fill="#8F74F6"/>
<path d="M37.8 34.088C37.6158 34.0842 37.4357 34.0327 37.2773 33.9387C37.1563 33.8663 37.0509 33.7707 36.967 33.6574C36.8832 33.544 36.8227 33.4152 36.789 33.2783C36.7553 33.1414 36.749 32.9992 36.7706 32.8599C36.7921 32.7206 36.8411 32.5869 36.9147 32.4667C37.1415 32.0435 37.4525 31.6713 37.8286 31.3728C38.2046 31.0743 38.6378 30.8559 39.1013 30.731C39.5649 30.6061 40.0492 30.5774 40.5243 30.6466C40.9994 30.7158 41.4553 30.8814 41.864 31.1333C42.1101 31.2748 42.29 31.5082 42.364 31.7823C42.438 32.0563 42.4001 32.3485 42.2587 32.5947C42.1172 32.8408 41.8838 33.0206 41.6097 33.0946C41.3357 33.1687 41.0434 33.1308 40.7973 32.9893C40.6322 32.8757 40.4445 32.7992 40.247 32.7651C40.0495 32.731 39.8469 32.7401 39.6533 32.7918C39.4596 32.8435 39.2795 32.9365 39.1253 33.0646C38.9711 33.1926 38.8465 33.3525 38.76 33.5333C38.6662 33.7049 38.527 33.8474 38.3577 33.9452C38.1884 34.043 37.9955 34.0924 37.8 34.088V34.088Z" fill="#8F74F6"/>
<path d="M37.6613 36.0507C37.5378 36.0493 37.4152 36.0277 37.2987 35.9867C37.0328 35.8904 36.8161 35.6925 36.6961 35.4365C36.576 35.1804 36.5626 34.8873 36.6587 34.6213C36.904 33.96 36.8507 33.6293 36.7867 33.5547C36.4102 33.3564 35.9763 33.2961 35.56 33.384C35.4189 33.4066 35.2748 33.4006 35.136 33.3664C34.9973 33.3322 34.8669 33.2705 34.7525 33.185C34.6381 33.0994 34.542 32.9917 34.47 32.8684C34.398 32.745 34.3515 32.6084 34.3333 32.4667C34.287 32.1881 34.3531 31.9025 34.5171 31.6725C34.681 31.4425 34.9295 31.287 35.208 31.24C35.776 31.1315 36.3615 31.158 36.9173 31.3174C37.4731 31.4767 37.9838 31.7644 38.408 32.1573C38.7422 32.6152 38.9421 33.1572 38.9855 33.7225C39.0288 34.2877 38.9138 34.8538 38.6533 35.3573C38.5777 35.5598 38.4423 35.7345 38.2652 35.8583C38.088 35.9821 37.8775 36.0492 37.6613 36.0507V36.0507ZM25.7893 17.3947C25.5766 17.3951 25.3686 17.332 25.192 17.2133C24.5605 16.8708 24.0242 16.3765 23.6313 15.7751C23.2384 15.1736 23.0013 14.4839 22.9413 13.768C22.98 13.1004 23.1666 12.4497 23.4876 11.8631C23.8086 11.2765 24.2559 10.7685 24.7973 10.376C25.0251 10.2077 25.3103 10.1367 25.5904 10.1787C25.8704 10.2207 26.1223 10.3723 26.2907 10.6C26.459 10.8277 26.53 11.113 26.4879 11.3931C26.4459 11.6731 26.2944 11.925 26.0667 12.0933C25.797 12.285 25.5691 12.5294 25.3967 12.8118C25.2244 13.0941 25.1112 13.4086 25.064 13.736C25.064 14.4187 25.8 15.048 26.3867 15.4427C26.5031 15.521 26.6029 15.6215 26.6804 15.7385C26.7579 15.8554 26.8115 15.9865 26.8383 16.1242C26.865 16.262 26.8644 16.4036 26.8363 16.5411C26.8082 16.6785 26.7533 16.8091 26.6747 16.9253C26.5768 17.0701 26.4449 17.1886 26.2905 17.2704C26.1362 17.3523 25.9641 17.3949 25.7893 17.3947V17.3947Z" fill="#8F74F6"/>
<path d="M21.9387 19.1227C21.7517 19.1242 21.5677 19.0766 21.4049 18.9846C21.2422 18.8926 21.1064 18.7594 21.0114 18.5985C20.9163 18.4375 20.8652 18.2544 20.8632 18.0674C20.8612 17.8805 20.9084 17.6963 21 17.5333C21.5092 16.7188 22.229 16.0569 23.0832 15.6175C23.9375 15.1782 24.8946 14.9777 25.8533 15.0373H26.0027C26.2856 15.0373 26.5569 15.1497 26.7569 15.3498C26.9569 15.5498 27.0693 15.8211 27.0693 16.104C27.0693 16.3869 26.9569 16.6582 26.7569 16.8582C26.5569 17.0583 26.2856 17.1707 26.0027 17.1707C25.3999 17.107 24.7911 17.206 24.2396 17.4574C23.6881 17.7087 23.214 18.1033 22.8667 18.6C22.7713 18.7608 22.6354 18.8937 22.4726 18.9854C22.3097 19.0772 22.1256 19.1245 21.9387 19.1227V19.1227Z" fill="#8F74F6"/>
<path d="M26.312 17.7253C26.1719 17.7253 26.0332 17.6977 25.9038 17.6441C25.7744 17.5905 25.6568 17.512 25.5578 17.4129C25.4587 17.3139 25.3801 17.1963 25.3265 17.0669C25.2729 16.9374 25.2453 16.7987 25.2453 16.6587C25.2222 15.9926 25.3362 15.3288 25.5802 14.7086C25.8242 14.0884 26.1931 13.525 26.664 13.0533C27.0997 12.716 27.6097 12.4877 28.1515 12.3875C28.6933 12.2873 29.2512 12.3181 29.7787 12.4773C30.0616 12.541 30.3076 12.7144 30.4626 12.9595C30.6177 13.2045 30.669 13.5011 30.6053 13.784C30.5417 14.0669 30.3683 14.3129 30.1232 14.468C29.8782 14.623 29.5816 14.6743 29.2987 14.6107C28.4347 14.408 28.1253 14.6107 28.0187 14.7493C27.5824 15.2838 27.355 15.9585 27.3787 16.648C27.3787 16.9309 27.2663 17.2022 27.0663 17.4022C26.8662 17.6023 26.5949 17.7147 26.312 17.7147V17.7253ZM20.7333 18.536C20.6341 18.5471 20.5339 18.5471 20.4347 18.536C20.1631 18.4568 19.9341 18.2729 19.7981 18.0249C19.662 17.7768 19.6301 17.4849 19.7093 17.2133C19.8697 16.851 19.9489 16.4581 19.9416 16.0619C19.9342 15.6658 19.8404 15.2761 19.6667 14.92C19.3144 14.4842 18.8048 14.2045 18.248 14.1413C17.9666 14.1143 17.7074 13.9767 17.5274 13.7587C17.3474 13.5407 17.2613 13.2601 17.288 12.9787C17.3151 12.6993 17.4512 12.4418 17.6668 12.2621C17.8825 12.0824 18.1603 11.9949 18.44 12.0187C19.0255 12.0791 19.5921 12.2601 20.1043 12.5501C20.6164 12.8401 21.063 13.233 21.416 13.704C21.7793 14.308 22.0015 14.9862 22.0661 15.688C22.1308 16.3898 22.0362 17.0972 21.7893 17.7573C21.7252 17.9862 21.5865 18.1872 21.3952 18.3282C21.2039 18.4693 20.971 18.5424 20.7333 18.536V18.536ZM32.2533 24.456C32.1104 24.4568 31.9688 24.4289 31.8369 24.374C31.7049 24.319 31.5854 24.2381 31.4853 24.136C29.448 22.0027 27.9013 23.0693 27.6133 23.272C27.3923 23.4464 27.1113 23.5263 26.8315 23.4944C26.5518 23.4624 26.296 23.3211 26.12 23.1013C25.9465 22.8836 25.8649 22.6066 25.8928 22.3296C25.9207 22.0526 26.0559 21.7974 26.2693 21.6187C27.336 20.7013 30.216 19.7413 33.0213 22.6853C33.22 22.8852 33.3315 23.1555 33.3315 23.4373C33.3315 23.7191 33.22 23.9895 33.0213 24.1893C32.8106 24.3761 32.5345 24.472 32.2533 24.456V24.456Z" fill="#8F74F6"/>
<path d="M22.8027 27.816C22.586 27.8175 22.374 27.753 22.1948 27.6311C22.0157 27.5091 21.878 27.3355 21.8 27.1333C21.6827 26.856 20.7333 24.3173 22.0347 22.504C22.8453 21.384 24.264 20.8827 26.3013 21C26.5842 21.017 26.8488 21.1456 27.0368 21.3577C27.2249 21.5697 27.321 21.8478 27.304 22.1307C27.287 22.4136 27.1584 22.6781 26.9463 22.8662C26.7343 23.0542 26.4562 23.1503 26.1733 23.1333C25.3413 23.08 24.264 23.1333 23.816 23.7627C23.6402 24.1721 23.5496 24.6131 23.5496 25.0587C23.5496 25.5043 23.6402 25.9452 23.816 26.3547C23.868 26.4849 23.8937 26.6241 23.8918 26.7644C23.8899 26.9046 23.8604 27.0431 23.8049 27.1719C23.7494 27.3007 23.6691 27.4173 23.5685 27.515C23.4679 27.6127 23.349 27.6896 23.2187 27.7413C23.0864 27.7937 22.9449 27.8191 22.8027 27.816V27.816Z" fill="#8F74F6"/>
<path d="M20.1787 29.2667C19.1402 29.2662 18.1104 29.0783 17.1387 28.712C16.877 28.6017 16.6699 28.3919 16.5628 28.1289C16.4558 27.8658 16.4577 27.571 16.568 27.3093C16.6783 27.0477 16.8881 26.8405 17.1511 26.7335C17.4142 26.6265 17.709 26.6283 17.9707 26.7387C18.12 26.8027 21.448 28.1147 23.688 25.5653C23.8749 25.3534 24.1382 25.2243 24.4201 25.2063C24.7021 25.1883 24.9797 25.2829 25.192 25.4693C25.4039 25.6562 25.5331 25.9195 25.5511 26.2015C25.5691 26.4835 25.4745 26.7611 25.288 26.9733C24.6579 27.7084 23.8732 28.2952 22.9899 28.6916C22.1066 29.0881 21.1467 29.2844 20.1787 29.2667V29.2667ZM16.968 21.8C16.7802 21.7981 16.5962 21.7465 16.4347 21.6507C16.1925 21.5082 16.0163 21.2759 15.9444 21.0043C15.8725 20.7327 15.9107 20.4436 16.0507 20.2C16.808 18.8773 19.0693 16.584 22.1093 17.384C22.2521 17.4125 22.3875 17.4699 22.5072 17.5527C22.627 17.6356 22.7285 17.742 22.8055 17.8655C22.8826 17.989 22.9335 18.127 22.9552 18.271C22.9769 18.4149 22.9689 18.5618 22.9318 18.7025C22.8946 18.8433 22.8289 18.9749 22.739 19.0894C22.649 19.2038 22.5365 19.2986 22.4085 19.3679C22.2805 19.4373 22.1397 19.4797 21.9947 19.4925C21.8496 19.5054 21.7035 19.4884 21.5653 19.4427C19.3467 18.856 17.9493 21.1707 17.896 21.2667C17.802 21.4295 17.6667 21.5645 17.5037 21.6582C17.3408 21.7518 17.156 21.8008 16.968 21.8V21.8Z" fill="#8F74F6"/>
<path d="M12.4453 21.352C12.3013 21.3509 12.1593 21.3181 12.0293 21.256C11.7711 21.1435 11.5679 20.9334 11.464 20.6716C11.3601 20.4099 11.3639 20.1176 11.4747 19.8587C11.7503 19.2032 12.1663 18.6161 12.6934 18.1388C13.2205 17.6614 13.8458 17.3055 14.5253 17.096C15.2354 16.9773 15.9637 17.0349 16.6463 17.2637C17.3289 17.4924 17.9449 17.8854 18.44 18.408C18.6519 18.5948 18.7811 18.8582 18.7991 19.1401C18.8171 19.4221 18.7225 19.6997 18.536 19.912C18.3491 20.1239 18.0858 20.2531 17.8039 20.2711C17.5219 20.2891 17.2443 20.1944 17.032 20.008C16.7801 19.7209 16.465 19.4963 16.1114 19.3519C15.7578 19.2075 15.3755 19.1473 14.9947 19.176C14.0347 19.3893 13.4373 20.6907 13.4267 20.7013C13.345 20.8941 13.2084 21.0586 13.0339 21.1743C12.8594 21.29 12.6547 21.3518 12.4453 21.352ZM8.65867 25.1813C8.41209 25.1873 8.17105 25.1077 7.97657 24.956C7.78209 24.8043 7.64619 24.5899 7.592 24.3493C7.43825 23.77 7.45732 23.1584 7.64685 22.5898C7.83638 22.0212 8.18809 21.5205 8.65867 21.1493C9.0948 20.8074 9.59547 20.5571 10.1307 20.4133C10.268 20.3819 10.4102 20.3779 10.549 20.4017C10.6878 20.4255 10.8206 20.4765 10.9396 20.5519C11.0586 20.6273 11.1615 20.7255 11.2424 20.8408C11.3232 20.9562 11.3804 21.0864 11.4107 21.224C11.4713 21.4983 11.4214 21.7854 11.2716 22.0231C11.1218 22.2607 10.8843 22.4297 10.6107 22.4933C10.4464 22.5074 10.2876 22.5594 10.1468 22.6452C10.006 22.7309 9.88694 22.8482 9.79909 22.9878C9.71123 23.1273 9.65692 23.2853 9.64042 23.4494C9.62392 23.6134 9.64569 23.7791 9.704 23.9333C9.76436 24.2091 9.71293 24.4976 9.56097 24.7355C9.40901 24.9734 9.16893 25.1414 8.89333 25.2027C8.81451 25.206 8.73559 25.1989 8.65867 25.1813ZM13.3627 32.072C12.9066 32.1019 12.4498 32.026 12.0279 31.8502C11.6061 31.6745 11.2305 31.4035 10.9307 31.0586C10.615 30.5959 10.4037 30.07 10.3116 29.5174C10.2195 28.9648 10.2488 28.3988 10.3973 27.8586C10.4767 27.5919 10.6572 27.3667 10.9004 27.2311C11.1435 27.0956 11.43 27.0605 11.6987 27.1333C11.971 27.2037 12.2045 27.3789 12.3483 27.6206C12.4922 27.8623 12.5347 28.1511 12.4667 28.424C12.341 28.8607 12.3828 29.3285 12.584 29.736C12.722 29.8374 12.8793 29.9096 13.0462 29.9481C13.2131 29.9866 13.3861 29.9907 13.5547 29.96C13.8376 29.9416 14.1162 30.0363 14.3292 30.2234C14.5423 30.4104 14.6723 30.6744 14.6907 30.9573C14.7091 31.2402 14.6143 31.5188 14.4273 31.7319C14.2402 31.9449 13.9762 32.0749 13.6933 32.0933L13.3627 32.072ZM15.8053 28.744C15.2181 28.7563 14.6379 28.614 14.1231 28.3312C13.6082 28.0485 13.1768 27.6354 12.872 27.1333C12.7842 27.0126 12.7227 26.8748 12.6915 26.7289C12.6604 26.5829 12.6601 26.432 12.6909 26.286C12.7217 26.14 12.7828 26.002 12.8702 25.881C12.9577 25.7601 13.0695 25.6588 13.1985 25.5838C13.3276 25.5088 13.4709 25.4617 13.6193 25.4455C13.7676 25.4294 13.9178 25.4446 14.0599 25.4901C14.202 25.5356 14.3331 25.6104 14.4445 25.7097C14.5559 25.809 14.6452 25.9306 14.7067 26.0666C14.9315 26.3586 15.2562 26.5571 15.6185 26.624C15.9808 26.691 16.3551 26.6216 16.6693 26.4293C17.1133 26.2453 17.4661 25.8925 17.6501 25.4484C17.8341 25.0044 17.8343 24.5055 17.6507 24.0613C17.5545 23.794 17.5684 23.4994 17.6895 23.2423C17.8105 22.9853 18.0287 22.7868 18.296 22.6907C18.5633 22.5945 18.8579 22.6084 19.115 22.7294C19.372 22.8505 19.5705 23.0686 19.6667 23.336C20.0204 24.2843 19.9963 25.3324 19.5992 26.2634C19.2022 27.1945 18.4626 27.9374 17.5333 28.3386C16.9933 28.5968 16.4038 28.7351 15.8053 28.744V28.744ZM41.3307 25.3093C41.1906 25.3093 41.0519 25.2817 40.9225 25.2281C40.7931 25.1745 40.6755 25.0959 40.5764 24.9969C40.4774 24.8978 40.3988 24.7803 40.3452 24.6508C40.2916 24.5214 40.264 24.3827 40.264 24.2427C40.2778 24.1165 40.2629 23.9889 40.2204 23.8693C40.1779 23.7497 40.109 23.6412 40.0187 23.552C39.9285 23.4628 39.8193 23.3951 39.6992 23.354C39.5791 23.3129 39.4513 23.2994 39.3253 23.3147C39.0424 23.3147 38.7711 23.2023 38.5711 23.0022C38.371 22.8022 38.2587 22.5309 38.2587 22.248C38.2587 21.9651 38.371 21.6938 38.5711 21.4937C38.7711 21.2937 39.0424 21.1813 39.3253 21.1813C39.9792 21.1627 40.622 21.3533 41.16 21.7253C41.621 21.1345 42.1982 20.6444 42.856 20.2853C43.1092 20.158 43.4026 20.1365 43.6716 20.2255C43.9407 20.3145 44.1634 20.5068 44.2907 20.76C44.418 21.0132 44.4395 21.3066 44.3505 21.5756C44.2614 21.8447 44.0692 22.0673 43.816 22.1947C43.4307 22.3947 43.1 22.6859 42.8528 23.0428C42.6056 23.3997 42.4492 23.8116 42.3973 24.2427C42.3973 24.3827 42.3697 24.5214 42.3161 24.6508C42.2625 24.7803 42.184 24.8978 42.0849 24.9969C41.9859 25.0959 41.8683 25.1745 41.7389 25.2281C41.6094 25.2817 41.4707 25.3093 41.3307 25.3093V25.3093Z" fill="#8F74F6"/>
<path d="M37.3307 25.3093C37.1606 25.3115 36.9924 25.2729 36.8403 25.1968C36.6881 25.1207 36.5563 25.0094 36.456 24.872C36.3741 24.7574 36.3158 24.6276 36.2844 24.4903C36.2529 24.353 36.249 24.2108 36.2728 24.072C36.2966 23.9331 36.3477 23.8004 36.423 23.6814C36.4984 23.5624 36.5966 23.4595 36.712 23.3787C37.5653 22.7707 37.8427 22.312 37.7787 22.0667C37.7147 21.8213 37.16 21.352 36.8613 21.224C36.6011 21.0995 36.4009 20.8768 36.3049 20.6047C36.2089 20.3327 36.2249 20.0336 36.3493 19.7733C36.4738 19.5131 36.6966 19.3129 36.9686 19.2169C37.2407 19.1209 37.5397 19.1369 37.8 19.2613C38.3333 19.4821 38.8055 19.8281 39.1769 20.27C39.5482 20.7119 39.8077 21.2367 39.9333 21.8C40.0613 22.952 39.3893 24.0507 37.9493 25.0853C37.7719 25.2233 37.5553 25.3017 37.3307 25.3093ZM19.8053 32.8293C19.5224 32.8406 19.2466 32.7391 19.0386 32.5471C18.8305 32.355 18.7073 32.0882 18.696 31.8053C18.6847 31.5224 18.7862 31.2466 18.9782 31.0386C19.1703 30.8305 19.4371 30.7073 19.72 30.696C19.8793 30.6639 20.0204 30.5723 20.1147 30.44C20.4406 29.8039 20.5093 29.0668 20.3067 28.3813C20.2843 28.2413 20.2897 28.0981 20.3225 27.9601C20.3554 27.8222 20.4152 27.692 20.4984 27.5771C20.5816 27.4622 20.6866 27.3648 20.8075 27.2905C20.9283 27.2162 21.0626 27.1664 21.2027 27.144C21.3427 27.1216 21.4859 27.127 21.6239 27.1599C21.7618 27.1928 21.892 27.2525 22.0069 27.3357C22.1218 27.4189 22.2192 27.524 22.2935 27.6448C22.3678 27.7656 22.4176 27.8999 22.44 28.04C22.6075 28.6788 22.6371 29.3459 22.5267 29.9969C22.4164 30.648 22.1686 31.2681 21.8 31.816C21.5677 32.1028 21.2797 32.3394 20.9534 32.5118C20.627 32.6841 20.2691 32.7885 19.9013 32.8187L19.8053 32.8293Z" fill="#8F74F6"/>
<path d="M24.936 33.5333C24.7846 33.5331 24.6349 33.5007 24.4969 33.4382C24.359 33.3756 24.236 33.2845 24.136 33.1707C23.9351 32.8939 23.6816 32.6594 23.3901 32.4806C23.0985 32.3018 22.7745 32.1823 22.4367 32.1288C22.0989 32.0753 21.7539 32.0889 21.4213 32.1689C21.0888 32.2488 20.7753 32.3935 20.4987 32.5947C20.3847 32.6771 20.2555 32.7361 20.1186 32.7684C19.9817 32.8006 19.8398 32.8055 19.701 32.7827C19.5622 32.7599 19.4293 32.7099 19.3099 32.6355C19.1905 32.5611 19.087 32.4639 19.0053 32.3493C18.8445 32.1219 18.779 31.8406 18.8229 31.5655C18.8667 31.2905 19.0164 31.0435 19.24 30.8773C20.2264 30.1518 21.4569 29.8396 22.6699 30.0069C23.8829 30.1742 24.9828 30.8079 25.736 31.7733C25.9225 31.9856 26.0171 32.2632 25.9991 32.5452C25.9811 32.8272 25.8519 33.0905 25.64 33.2773C25.444 33.445 25.1939 33.5359 24.936 33.5333V33.5333ZM29.5973 22.8667C29.3551 22.8743 29.1175 22.7993 28.9236 22.6539C28.7297 22.5085 28.5911 22.3014 28.5307 22.0667C28.3918 21.5256 28.3675 20.9614 28.4594 20.4103C28.5512 19.8593 28.7571 19.3335 29.064 18.8667C29.3904 18.4683 29.8081 18.1546 30.2816 17.9522C30.7551 17.7498 31.2705 17.6646 31.784 17.704C32.0669 17.704 32.3382 17.8164 32.5383 18.0164C32.7383 18.2165 32.8507 18.4878 32.8507 18.7707C32.8507 19.0536 32.7383 19.3249 32.5383 19.5249C32.3382 19.725 32.0669 19.8373 31.784 19.8373C31.5928 19.8098 31.3979 19.8252 31.2134 19.8824C31.0289 19.9396 30.8595 20.0372 30.7173 20.168C30.4982 20.5922 30.445 21.0827 30.568 21.544C30.6357 21.8184 30.5917 22.1084 30.4457 22.3504C30.2997 22.5924 30.0636 22.7666 29.7893 22.8347C29.7265 22.8512 29.6622 22.8619 29.5973 22.8667V22.8667Z" fill="#8F74F6"/>
<path d="M33.8213 21.8C33.6546 21.7967 33.4907 21.7567 33.3413 21.6826C32.6265 21.2966 32.0609 20.683 31.7344 19.9391C31.4078 19.1951 31.3389 18.3635 31.5387 17.576C31.8693 16.168 33.1707 14.6533 35.8053 14.6533C36.0882 14.6533 36.3595 14.7657 36.5596 14.9657C36.7596 15.1658 36.872 15.4371 36.872 15.72C36.872 16.0029 36.7596 16.2742 36.5596 16.4742C36.3595 16.6743 36.0882 16.7867 35.8053 16.7867C34.568 16.7867 33.7893 17.2453 33.5973 18.0667C33.5136 18.3867 33.5348 18.7252 33.6576 19.0324C33.7805 19.3396 33.9986 19.5993 34.28 19.7733C34.4067 19.8357 34.5197 19.9226 34.6126 20.0289C34.7054 20.1353 34.7762 20.2591 34.8209 20.393C34.8655 20.527 34.8831 20.6685 34.8727 20.8093C34.8622 20.9501 34.8239 21.0874 34.76 21.2133C34.6722 21.3876 34.5382 21.5345 34.3727 21.6379C34.2072 21.7414 34.0165 21.7974 33.8213 21.8ZM27.816 30.824C27.5331 30.824 27.2618 30.7116 27.0617 30.5116C26.8617 30.3115 26.7493 30.0402 26.7493 29.7573C26.7316 29.2183 26.8245 28.6814 27.0223 28.1798C27.2201 27.6781 27.5187 27.2223 27.8995 26.8405C28.2803 26.4586 28.7353 26.1589 29.2365 25.9598C29.7377 25.7606 30.2743 25.6663 30.8133 25.6826C31.0962 25.6826 31.3675 25.795 31.5676 25.9951C31.7676 26.1951 31.88 26.4664 31.88 26.7493C31.88 27.0322 31.7676 27.3035 31.5676 27.5036C31.3675 27.7036 31.0962 27.816 30.8133 27.816C30.5548 27.8003 30.2958 27.8398 30.0538 27.9319C29.8117 28.0241 29.592 28.1668 29.4094 28.3504C29.2267 28.5341 29.0853 28.7545 28.9944 28.9971C28.9036 29.2397 28.8655 29.4989 28.8827 29.7573C28.8827 30.0402 28.7703 30.3115 28.5702 30.5116C28.3702 30.7116 28.0989 30.824 27.816 30.824V30.824Z" fill="#8F74F6"/>
</svg>
