<svg width="50" height="50" viewBox="0 0 50 50" fill="none" xmlns="http://www.w3.org/2000/svg">
<path d="M39.5833 29.1667C38.3472 29.1667 37.1388 28.8001 36.111 28.1134C35.0832 27.4266 34.2821 26.4505 33.8091 25.3084C33.336 24.1664 33.2123 22.9097 33.4534 21.6974C33.6946 20.485 34.2898 19.3713 35.1639 18.4972C36.038 17.6232 37.1516 17.0279 38.364 16.7868C39.5764 16.5456 40.8331 16.6694 41.9751 17.1424C43.1171 17.6155 44.0933 18.4165 44.78 19.4444C45.4668 20.4722 45.8333 21.6805 45.8333 22.9167C45.8315 24.5737 45.1725 26.1624 44.0008 27.3341C42.829 28.5058 41.2404 29.1649 39.5833 29.1667ZM16.6667 31.25C13.3526 31.2464 10.1753 29.9283 7.83183 27.5848C5.48841 25.2414 4.17029 22.0641 4.16666 18.75V6.25C4.16666 5.69747 4.38616 5.16756 4.77686 4.77686C5.16756 4.38616 5.69746 4.16667 6.25 4.16667H10.4167C10.9692 4.16667 11.4991 4.38616 11.8898 4.77686C12.2805 5.16756 12.5 5.69747 12.5 6.25C12.5 6.80254 12.2805 7.33244 11.8898 7.72314C11.4991 8.11384 10.9692 8.33333 10.4167 8.33333H8.33333V18.75C8.33333 20.9601 9.2113 23.0798 10.7741 24.6426C12.3369 26.2054 14.4565 27.0833 16.6667 27.0833C18.8768 27.0833 20.9964 26.2054 22.5592 24.6426C24.122 23.0798 25 20.9601 25 18.75V8.33333H22.9167C22.3641 8.33333 21.8342 8.11384 21.4435 7.72314C21.0528 7.33244 20.8333 6.80254 20.8333 6.25C20.8333 5.69747 21.0528 5.16756 21.4435 4.77686C21.8342 4.38616 22.3641 4.16667 22.9167 4.16667H27.0833C27.6359 4.16667 28.1658 4.38616 28.5565 4.77686C28.9472 5.16756 29.1667 5.69747 29.1667 6.25V18.75C29.163 22.0641 27.8449 25.2414 25.5015 27.5848C23.1581 29.9283 19.9808 31.2464 16.6667 31.25V31.25Z" fill="#B2B1FF"/>
<path d="M39.5833 29.1667C38.872 29.1596 38.1671 29.0297 37.5 28.7826V32.2917C37.5 34.7781 36.5123 37.1626 34.7541 38.9208C32.996 40.6789 30.6114 41.6667 28.125 41.6667C25.6386 41.6667 23.254 40.6789 21.4959 38.9208C19.7377 37.1626 18.75 34.7781 18.75 32.2917V31.0618C17.3724 31.3127 15.9609 31.3127 14.5833 31.0618V32.2917C14.5833 35.8831 16.01 39.3275 18.5496 41.8671C21.0892 44.4066 24.5335 45.8333 28.125 45.8333C31.7165 45.8333 35.1608 44.4066 37.7004 41.8671C40.24 39.3275 41.6667 35.8831 41.6667 32.2917V28.7828C40.9995 29.0298 40.2947 29.1596 39.5833 29.1667Z" fill="#8F74F6"/>
</svg>
