<svg width="50" height="50" viewBox="0 0 50 50" fill="none" xmlns="http://www.w3.org/2000/svg">
<g clip-path="url(#clip0)">
<path d="M12.325 39.5094C13.1234 41.4016 14.5281 43.0906 16.5094 44.5328C18.2688 45.8125 20.1969 46.675 22.1375 47.5406C24.4328 48.5688 27.0344 49.7328 29.8969 49.9625C30.2047 49.9875 30.5109 50 30.8141 50C33.8141 50 36.5 48.7984 38.1219 46.6922C39.45 44.9672 40.1188 42.6344 40.1719 39.5594C40.2688 33.6797 38.2516 27.8109 34.725 23.2656C37.0556 24.012 39.2894 25.0322 41.3797 26.3047C41.555 26.4113 41.7496 26.4823 41.9524 26.5137C42.1552 26.5451 42.3622 26.5362 42.5615 26.4876C42.7609 26.439 42.9487 26.3516 43.1143 26.2304C43.2799 26.1092 43.42 25.9566 43.5266 25.7812C43.6332 25.6059 43.7042 25.4113 43.7356 25.2085C43.767 25.0057 43.7581 24.7988 43.7095 24.5994C43.6609 24.4 43.5735 24.2122 43.4523 24.0466C43.3311 23.8811 43.1785 23.741 43.0031 23.6344C39.0616 21.2403 34.6789 19.6632 30.1156 18.9969C29.9283 18.8472 29.7091 18.7426 29.4749 18.6912C29.2407 18.6398 28.9978 18.643 28.765 18.7005C28.5323 18.758 28.3159 18.8684 28.1326 19.023C27.9493 19.1776 27.8041 19.3723 27.7081 19.592C27.6121 19.8117 27.568 20.0506 27.5792 20.2901C27.5904 20.5296 27.6565 20.7634 27.7725 20.9732C27.8885 21.1831 28.0512 21.3634 28.2481 21.5003C28.445 21.6371 28.6707 21.7269 28.9078 21.7625C34.0406 25.8781 37.1594 32.6781 37.0484 39.5094C37.0094 41.8891 36.5516 43.6156 35.6484 44.7875C34.3094 46.5266 31.9297 46.9922 30.1484 46.85C27.8234 46.6625 25.4813 45.6141 23.3422 44.6562C21.5438 43.8531 19.8453 43.0938 18.3531 42.0063C16.7266 40.8219 15.6281 39.4687 15.0875 37.9875C15.0516 37.8875 14.9922 37.8 14.9375 37.7109C15.1313 36.4687 15.2344 35.2406 15.3266 34.05C15.475 32.1312 15.6141 30.3203 16.1391 28.525C16.1909 28.3283 16.164 28.1192 16.0641 27.942C15.9642 27.7649 15.7992 27.6337 15.604 27.5763C15.4089 27.5189 15.1991 27.5399 15.0192 27.6348C14.8393 27.7297 14.7035 27.8909 14.6406 28.0844C14.0625 30.0391 13.9109 32.0172 13.7641 33.9312C13.7 34.75 13.6234 35.5859 13.525 36.4234C11.2578 34.2797 10.1797 31.1937 9.67188 28.8422C8.9922 25.6953 9.49063 22.4797 11.0766 19.7828C11.5902 18.8905 12.2127 18.0654 12.9297 17.3266C14.475 15.7656 14.9422 14.3906 14.6531 12.25C14.2346 9.15065 13.3302 6.13661 11.9734 3.31875C11.8845 3.13377 11.76 2.96812 11.607 2.83126C11.454 2.69441 11.2756 2.58902 11.0819 2.52111C10.8882 2.45321 10.6831 2.42412 10.4781 2.43551C10.2732 2.4469 10.0725 2.49855 9.88751 2.5875C9.70253 2.67645 9.53688 2.80096 9.40002 2.95393C9.26316 3.1069 9.15777 3.28532 9.08987 3.47902C8.95273 3.87021 8.97662 4.29985 9.15626 4.67344C10.3718 7.19516 11.1818 9.89293 11.5563 12.6672C11.7156 13.8422 11.5734 14.2562 10.7094 15.1281C9.80993 16.0517 9.02893 17.0835 8.38438 18.2C6.40001 21.5734 5.77345 25.5875 6.61876 29.5016C7.57032 33.9094 9.53907 37.3578 12.325 39.5094V39.5094Z" fill="#8F74F6"/>
<path d="M18.8719 19.5453C19.0764 19.5609 19.2819 19.536 19.4768 19.4721C19.6717 19.4082 19.852 19.3065 20.0076 19.1729C20.1631 19.0392 20.2908 18.8762 20.3834 18.6932C20.4759 18.5102 20.5315 18.3107 20.5469 18.1062C20.7969 14.8156 22.5781 11.7297 25.2031 9.98906C27.0003 10.5538 28.9197 10.6036 30.7438 10.1328C32.8922 9.5625 34.7313 8.2125 35.6625 6.52344C35.7615 6.34369 35.8241 6.1462 35.8468 5.94225C35.8695 5.7383 35.8518 5.53188 35.7947 5.33477C35.7376 5.13766 35.6422 4.95373 35.5141 4.79348C35.3859 4.63322 35.2274 4.49978 35.0477 4.40078C34.8679 4.30178 34.6704 4.23914 34.4665 4.21646C34.2625 4.19378 34.0561 4.21149 33.859 4.26859C33.6619 4.32568 33.478 4.42104 33.3177 4.54921C33.1574 4.67739 33.024 4.83588 32.925 5.01562C32.4047 5.95937 31.2625 6.76406 29.9391 7.11406C28.7839 7.4093 27.5717 7.39853 26.4219 7.08281C26.6828 4.83594 26.2219 2.52812 25.0875 0.731248C24.8602 0.395231 24.5111 0.160787 24.1141 0.0774929C23.7171 -0.00580144 23.3032 0.0685845 22.96 0.284921C22.6169 0.501257 22.3713 0.842582 22.2752 1.23672C22.1792 1.63085 22.2402 2.0469 22.4453 2.39687C23.35 3.82812 23.6156 5.77031 23.1781 7.575C19.9266 9.87031 17.7422 13.7578 17.4313 17.8687C17.4157 18.0734 17.4406 18.2792 17.5046 18.4743C17.5686 18.6693 17.6704 18.8498 17.8042 19.0055C17.938 19.1612 18.1011 19.2891 18.2843 19.3817C18.4675 19.4743 18.6672 19.5299 18.8719 19.5453V19.5453Z" fill="#8F74F6"/>
</g>
<defs>
<clipPath id="clip0">
<rect width="50" height="50" fill="white"/>
</clipPath>
</defs>
</svg>
