<svg width="50" height="50" viewBox="0 0 50 50" fill="none" xmlns="http://www.w3.org/2000/svg">
<path d="M18.3437 11.5781V13.2725H4.03125V11.4355C4.03131 11.3083 4.03881 11.1811 4.05371 11.0547C4.14725 10.2788 4.52166 9.56399 5.10622 9.04527C5.69078 8.52656 6.44504 8.23984 7.22656 8.23926H15.0039C15.7988 8.23956 16.5675 8.52316 17.1721 9.03916C17.7767 9.55515 18.1775 10.2698 18.3027 11.0547C18.3298 11.2279 18.3435 11.4028 18.3437 11.5781V11.5781Z" fill="#B9D5EA"/>
<path d="M27.1035 28.8496L37.0869 36.458L36.1416 37.0117C35.851 37.1815 35.5985 37.4092 35.3996 37.6807C35.2007 37.9522 35.0597 38.2616 34.9854 38.5898L34.7422 39.6895L24.1865 31.6592L24.126 31.7178L15.3203 40.1885L14.9297 39.2412L14.9199 39.2188C14.7923 38.9088 14.6009 38.6291 14.3581 38.3979C14.1153 38.1668 13.8266 37.9893 13.5107 37.877L12.3916 37.4863L20.9854 29.2148L10.5469 21.2637L6.79297 18.4053H13.3789L17.1348 21.2637L23.8975 26.4111L29.2412 21.2637L32.209 18.4053H37.9629L34.9922 21.2637L27.1084 28.8486L27.1035 28.8496Z" fill="#8F74F6"/>
<path d="M24.126 31.7178L15.3203 40.1885L14.9277 39.2412L23.2383 30.9307L24.126 31.7178Z" fill="#8F74F6"/>
<path d="M17.1318 21.2637H10.5459L6.79297 18.4053H13.376L17.1318 21.2637Z" fill="#8F74F6"/>
<path d="M20.9785 29.2109L21.8408 28.3828L7.91309 17.6582L7.02832 18.585L20.9785 29.2109Z" fill="#8F74F6"/>
<path d="M16.7559 40.1895C16.7568 40.9652 16.5276 41.7237 16.0973 42.3691C15.6669 43.0145 15.0548 43.5176 14.3383 43.8149C13.6218 44.1122 12.8332 44.1903 12.0724 44.0392C11.3116 43.8881 10.6126 43.5146 10.0641 42.9661C9.51563 42.4176 9.1422 41.7187 8.9911 40.9579C8.84 40.197 8.91804 39.4085 9.21534 38.692C9.51263 37.9755 10.0158 37.3634 10.6612 36.933C11.3066 36.5027 12.0651 36.2735 12.8408 36.2744C13.2809 36.2735 13.7179 36.3482 14.1328 36.4951C14.8982 36.7644 15.5614 37.2641 16.0311 37.9257C16.5008 38.5873 16.754 39.3781 16.7559 40.1895V40.1895Z" fill="#8F74F6"/>
<path d="M37.96 18.4053L34.9893 21.2637L27.1055 28.8486L26.1025 28.1426L35.8398 18.4053H37.96Z" fill="#8F74F6"/>
<path opacity="0.5" d="M37.96 18.4053L34.9893 21.2637H29.2383L32.2061 18.4053H37.96Z" fill="#8F74F6"/>
<path d="M18.3437 11.5781V13.2725H4.03125V11.4355C4.03131 11.3083 4.03881 11.1811 4.05371 11.0547H18.3037C18.3304 11.2279 18.3438 11.4029 18.3437 11.5781V11.5781Z" fill="#A5C4D6"/>
<path d="M49.9512 16.5205V19.8701H0.0488281V16.5205C0.0501202 15.2717 0.546731 14.0743 1.42971 13.1911C2.31269 12.308 3.50994 11.8111 4.75879 11.8096H45.2412C46.4901 11.8111 47.6873 12.308 48.5703 13.1911C49.4533 14.0743 49.9499 15.2717 49.9512 16.5205V16.5205Z" fill="#8F74F6"/>
<path d="M41.8799 39.1426C41.8801 39.9172 41.6505 40.6744 41.2203 41.3186C40.7901 41.9627 40.1785 42.4648 39.4629 42.7613C38.7473 43.0578 37.9599 43.1354 37.2001 42.9844C36.4404 42.8333 35.7426 42.4603 35.1948 41.9126C34.6471 41.3649 34.2741 40.667 34.1231 39.9073C33.972 39.1476 34.0496 38.3601 34.3461 37.6445C34.6426 36.9289 35.1447 36.3173 35.7889 35.8871C36.433 35.4569 37.1902 35.2273 37.9648 35.2275C39.0028 35.2288 39.9978 35.6417 40.7318 36.3757C41.4657 37.1096 41.8786 38.1046 41.8799 39.1426V39.1426Z" fill="#8F74F6"/>
<path d="M49.9512 16.8945H0.0488281V19.8701H49.9512V16.8945Z" fill="#8F74F6"/>
<path d="M15.9287 42.5928C15.5893 43.0335 15.1599 43.3969 14.6691 43.6587C14.1783 43.9206 13.6374 44.0748 13.0823 44.1112C12.5272 44.1476 11.9707 44.0654 11.4499 43.8699C10.9291 43.6744 10.4559 43.3702 10.0618 42.9776C9.66779 42.5849 9.36192 42.1128 9.1646 41.5927C8.96727 41.0726 8.88302 40.5164 8.91745 39.9612C8.95189 39.406 9.10422 38.8645 9.3643 38.3728C9.62438 37.881 9.98625 37.4503 10.4258 37.1094C9.84121 37.8636 9.55215 38.8054 9.61294 39.7577C9.67372 40.7101 10.0802 41.6075 10.7559 42.2813C11.4316 42.9551 12.3302 43.359 13.2827 43.4171C14.2352 43.4751 15.1761 43.1834 15.9287 42.5967V42.5928ZM41.6436 40.4844C41.3046 41.4243 40.6194 42.1992 39.7279 42.6506C38.8365 43.102 37.8064 43.1958 36.8481 42.9128C35.8898 42.6297 35.0759 41.9913 34.5728 41.128C34.0697 40.2647 33.9155 39.2418 34.1416 38.2686C34.2422 37.8245 34.4203 37.4016 34.668 37.0195C34.6119 37.1724 34.5656 37.3286 34.5293 37.4873C34.3243 38.3854 34.4422 39.3271 34.8625 40.1468C35.2828 40.9666 35.9785 41.612 36.8274 41.9698C37.6763 42.3276 38.6241 42.3748 39.5044 42.1031C40.3846 41.8315 41.141 41.2583 41.6406 40.4844H41.6436Z" fill="#8F74F6"/>
<path d="M14.9277 12.9375H44.877" stroke="white" stroke-width="3" stroke-linecap="round" stroke-linejoin="round"/>
<path d="M7.67578 8.94629H14.9277" stroke="white" stroke-width="3" stroke-linecap="round" stroke-linejoin="round"/>
</svg>
