<svg width="50" height="68" viewBox="0 0 50 68" fill="none" xmlns="http://www.w3.org/2000/svg">
<g clip-path="url(#clip0)">
<path fill-rule="evenodd" clip-rule="evenodd" d="M26.2619 57.2198L27.7445 25.7416C27.9767 24.5106 29.2425 24.259 37.0346 22.4164C44.8307 20.5739 49.9867 15.1778 49.9867 15.1778H0.0132599C0.0132599 15.1778 5.16931 20.5739 12.9615 22.4164C20.7575 24.259 22.0233 24.5106 22.2555 25.7416L23.7419 57.2198L25 67.1642L26.2619 57.2198Z" fill="#E5E9EC"/>
<path fill-rule="evenodd" clip-rule="evenodd" d="M26.2619 57.2198L27.7445 25.7416C27.9767 24.5106 29.2425 24.259 37.0385 22.4164C44.8307 20.5739 49.9867 15.1778 49.9867 15.1778H46.6384C38.5559 24.1971 27.5664 21.7429 27.0709 25.3119L25.7006 57.2392L25 67.1642L26.2619 57.2198Z" fill="#CCD2D9"/>
<path fill-rule="evenodd" clip-rule="evenodd" d="M30.5973 56.7824C28.2516 59.2559 23.6065 60.6727 23.9394 60.8469C24.3148 61.0443 30.516 59.3643 31.9405 56.5308C33.4347 53.3721 28.7083 52.3386 26.5058 51.9709L26.4322 53.5618C28.0851 53.8018 32.3276 54.1734 30.5973 56.7824ZM28.0154 47.7787C29.1961 47.5154 31.7664 46.8651 32.5444 46.0871C33.0167 45.6148 33.125 45.7619 33.5276 44.9723C34.2979 43.4471 32.9857 41.9297 31.2902 41.2484C30.4735 40.9155 28.8554 40.7452 27.0438 40.602L26.92 43.2342C28.4335 43.3465 29.5328 43.4394 29.5754 43.5168C29.8193 44.7439 22.1162 45.8045 21.2104 46.0987C20.4091 46.3619 19.151 46.7219 18.5898 47.1361C17.862 47.678 18.3459 47.2096 17.5911 47.9645C17.3085 48.2509 17.1846 48.9012 17.3317 49.3928C17.5949 50.2948 18.0285 50.4767 18.4659 50.9683C18.9265 51.4831 20.7072 52.2999 21.4349 52.5979C21.9652 52.8186 22.7084 52.985 23.5484 53.1321L23.4671 51.3902C22.5807 51.1657 21.8104 50.8793 21.2646 50.4689C18.9652 48.7386 27.1019 47.9799 28.0154 47.7787ZM22.7936 37.153C24.3187 36.6498 25.7355 36.255 25.9174 36.1969C26.3897 36.0304 26.8387 35.8717 27.2761 35.713C31.6734 34.1066 34.4876 32.7053 38.1108 29.1363C40.9598 26.597 42.6707 23.3455 43.4449 19.9468C41.9352 20.7597 40.2049 21.5184 38.2927 22.0835C36.9456 24.8358 34.9482 27.2628 32.6992 28.8654C31.6115 29.6667 29.0722 30.6731 27.4813 31.3312C27.1832 31.455 26.92 31.5673 26.7071 31.6602L24.1755 32.6434C23.6994 32.8486 23.142 33.0382 22.6078 33.2395C22.271 33.3673 21.942 33.4989 21.6555 33.6421C21.102 33.9208 19.9639 34.3079 19.2014 34.6989C19.0001 34.8034 18.8569 34.9079 18.6246 35.0008C18.1717 35.1827 16.7588 36.0188 16.4492 36.3479C16.3563 36.4446 16.3214 36.5027 16.2634 36.5646C15.5163 37.3349 15.0014 38.2717 15.1679 39.4523C15.3769 40.8846 16.3446 41.6394 17.7072 42.1968C18.4543 42.5026 20.7149 42.7426 23.0684 42.94L22.9407 40.2807C20.8775 40.0794 19.1704 39.7852 18.7988 39.1891C18.5975 38.6665 20.7884 37.8149 22.7936 37.153ZM43.9365 15.1778C43.7623 4.79606 35.7495 -4.618 25.2942 2.4619C24.4581 3.08899 23.591 3.94833 22.9136 4.81541C22.3291 5.5625 21.5355 7.00635 21.2762 7.91214L20.5562 10.3663C20.3433 11.0282 20.591 11.2373 20.9317 11.5392C20.7575 11.8566 20.5407 11.9611 20.3085 12.1508C18.9575 13.254 16.8788 14.0669 15.2492 12.8088L13.5111 11.3069C12.884 10.8424 13.1202 10.9624 12.4273 10.6257L12.7369 10.9315C13.0428 11.2063 13.306 11.4656 13.5189 11.8527C13.1473 11.6669 13.155 11.5314 12.8492 11.3573C12.0441 10.9044 11.1499 10.4128 10.1241 10.4863C11.1615 10.5792 12.4157 11.4231 13.0621 12.2243C13.9369 13.3082 14.266 13.7804 15.9382 14.1443C17.0995 14.3959 18.8646 13.9159 19.6968 13.1572C19.9446 12.9327 19.9368 13.0605 20.351 12.6656C22.1626 10.9315 20.4091 12.1818 22.6542 11.3147L25.0194 10.0992C25.1239 10.0373 25.2632 9.95598 25.3987 9.86695C26.2464 9.31728 26.769 9.0889 27.3806 8.26827C27.8916 7.58699 27.5625 8.20246 28.0077 7.06828C28.2245 6.50313 28.3135 5.74056 28.689 5.38831C29.1496 4.95477 29.7264 4.86186 30.2993 4.5638C31.2438 4.06833 34.147 4.81928 34.1973 4.99735C34.2128 5.05154 35.3857 5.67088 35.556 5.8025C36.0824 6.09281 36.9998 6.867 37.3792 7.31215L37.7353 7.76505C39.4656 9.94824 40.1546 12.5379 40.0849 15.1778H43.9365Z" fill="#8F74F6"/>
<path fill-rule="evenodd" clip-rule="evenodd" d="M22.902 7.54053C22.902 7.54053 21.973 7.67601 21.9381 8.43858C21.9033 9.19728 21.9033 9.31728 21.9033 9.31728C21.9033 9.31728 22.3678 8.91858 22.6116 8.6089C22.8516 8.29923 22.902 7.54053 22.902 7.54053Z" fill="white"/>
</g>
<defs>
<clipPath id="clip0">
<rect width="50" height="67.1642" fill="white"/>
</clipPath>
</defs>
</svg>
