<svg width="50" height="50" viewBox="0 0 50 50" fill="none" xmlns="http://www.w3.org/2000/svg">
<path d="M25 0C11.199 0 0 11.1991 0 25C0 38.8009 11.199 50 25 50C38.8009 50 50 38.8009 50 25C50 11.1991 38.8009 0 25 0ZM25 1.04167C38.238 1.04167 48.9583 11.7621 48.9583 25C48.9583 38.238 38.238 48.9583 25 48.9583C11.762 48.9583 1.04167 38.238 1.04167 25C1.04167 11.7621 11.762 1.04167 25 1.04167ZM28.4485 17.1855C27.0952 17.1855 26.0417 18.3825 26.0417 19.7896C26.0417 21.1968 27.0952 22.3938 28.4485 22.3938H35.0932C36.4465 22.3938 37.5 21.1968 37.5 19.7896C37.5 18.3825 36.4465 17.1855 35.0932 17.1855H28.4485ZM28.4485 18.2271H31.25V21.3521H28.4485C27.713 21.3521 27.0833 20.6909 27.0833 19.7896C27.0833 18.8885 27.713 18.2271 28.4485 18.2271ZM32.2917 18.2271H35.0932C35.8287 18.2271 36.4583 18.8885 36.4583 19.7896C36.4583 20.6909 35.8287 21.3521 35.0932 21.3521H32.2917V18.2271ZM9.8999 20.5729C9.76177 20.5729 9.6293 20.6278 9.53163 20.7255C9.43396 20.8232 9.37908 20.9556 9.37907 21.0937V31.7017C9.37908 31.8398 9.43396 31.9723 9.53163 32.0699C9.6293 32.1676 9.76177 32.2225 9.8999 32.2225H12.7482H15.5986C15.7367 32.2225 15.8691 32.1676 15.9668 32.0699C16.0645 31.9723 16.1194 31.8398 16.1194 31.7017V30.9347L25.8484 34.2305C25.8618 34.2345 25.8754 34.2379 25.8891 34.2407C27.0219 34.5281 28.3287 34.3576 29.3172 33.6934L39.3921 28.2186C39.3948 28.2186 39.3975 28.2186 39.4002 28.2186L39.6464 28.0782C40.4872 27.6026 40.8477 26.5672 40.4724 25.6795C40.153 24.924 39.525 24.5773 39.034 24.5056C38.5431 24.4337 38.1409 24.5728 38.1409 24.5728C38.1235 24.5793 38.1065 24.5868 38.09 24.5951L32.5358 27.1708C32.543 27.101 32.5582 27.0334 32.5582 26.9613C32.5582 25.7911 31.5888 24.8393 30.4138 24.8393H25.7894C25.7694 24.8039 25.7466 24.7539 25.7284 24.7213C25.6457 24.5719 25.5562 24.4279 25.4598 24.2879C25.2669 24.0078 25.0473 23.7465 24.8047 23.5087C23.8342 22.5579 22.489 21.9727 21.0103 21.9727H16.1194V21.0978C16.1194 20.9597 16.0645 20.8272 15.9668 20.7295C15.8691 20.6319 15.7367 20.577 15.5986 20.577H12.7482H9.8999V20.5729ZM10.4207 21.6146H12.7482H15.0777V31.1808H12.7482H10.4207V21.6146ZM16.1194 23.0103H21.0103C22.2152 23.0103 23.2938 23.4846 24.0743 24.2493C24.2695 24.4405 24.4466 24.6494 24.6012 24.8739C24.6786 24.9863 24.7508 25.1022 24.8169 25.2218C24.8985 25.3694 24.9539 25.4592 24.998 25.5615L25.1322 25.8769H25.59H30.4138C31.0377 25.8769 31.5165 26.3541 31.5165 26.9572C31.5165 27.4096 31.2471 27.7882 30.8492 27.95H30.8431C30.712 28.0021 30.5675 28.0334 30.4138 28.0334H23.1689V29.0751H30.4138C30.6315 29.0751 30.8376 29.0318 31.0364 28.9714C31.0982 28.9672 31.1589 28.952 31.2154 28.9266L38.4847 25.5554C38.4936 25.5554 38.6654 25.4987 38.8835 25.531C39.107 25.5633 39.3217 25.6248 39.5142 26.0803C39.6861 26.4871 39.5312 26.942 39.1337 27.1667L38.8896 27.3031L28.7781 32.8003C28.7634 32.8084 28.7492 32.8172 28.7354 32.8267C28.0484 33.2883 26.9817 33.4406 26.1475 33.2296H26.1454L16.1194 29.834V23.0103Z" fill="#8F74F6"/>
</svg>
