<svg width="50" height="50" viewBox="0 0 50 50" fill="none" xmlns="http://www.w3.org/2000/svg">
<path d="M23.8363 28.3407C23.5627 28.3407 23.2918 28.2868 23.0391 28.1821C22.7863 28.0773 22.5567 27.9238 22.3634 27.7302L14.9963 20.3583C14.8028 20.1649 14.6493 19.9353 14.5446 19.6826C14.4399 19.4298 14.386 19.1589 14.386 18.8854C14.386 18.6118 14.4399 18.3409 14.5446 18.0881C14.6493 17.8354 14.8028 17.6058 14.9963 17.4124L28.2511 4.15656C28.4795 3.92763 28.7582 3.75521 29.0649 3.65302L33.4839 2.17902C33.851 2.0566 34.2449 2.03887 34.6215 2.12781C34.9981 2.21676 35.3425 2.40885 35.616 2.68256L40.037 7.10252C40.3106 7.37615 40.5025 7.72057 40.5913 8.09716C40.68 8.47376 40.6621 8.86763 40.5396 9.23462L39.0646 13.6556C38.9631 13.9624 38.7909 14.2412 38.5621 14.4694L25.3093 27.7303C25.1159 27.9238 24.8863 28.0774 24.6335 28.1821C24.3808 28.2868 24.1099 28.3407 23.8363 28.3407Z" fill="#D8D8FF"/>
<path d="M14.9963 20.3583L14.9962 20.3581L12.0463 23.3073C11.8528 23.5007 11.6993 23.7303 11.5946 23.9831C11.4899 24.2358 11.436 24.5067 11.436 24.7803C11.436 25.0539 11.4899 25.3247 11.5946 25.5775C11.6993 25.8302 11.8528 26.0599 12.0463 26.2533L16.4673 30.6722C16.6607 30.8657 16.8903 31.0192 17.1431 31.1239C17.3958 31.2286 17.6667 31.2825 17.9403 31.2825C18.2138 31.2825 18.4847 31.2286 18.7375 31.1239C18.9902 31.0192 19.2198 30.8657 19.4132 30.6722L22.3592 27.7262L14.9963 20.3583Z" fill="#B2B1FF"/>
<path d="M16.6667 37.5112H8.33333C7.7808 37.5112 7.25089 37.2917 6.86019 36.901C6.46949 36.5103 6.25 35.9804 6.25 35.4279C6.25 34.8753 6.46949 34.3454 6.86019 33.9547C7.25089 33.564 7.7808 33.3445 8.33333 33.3445H16.6667C17.2192 33.3445 17.7491 33.564 18.1398 33.9547C18.5305 34.3454 18.75 34.8753 18.75 35.4279C18.75 35.9804 18.5305 36.5103 18.1398 36.901C17.7491 37.2917 17.2192 37.5112 16.6667 37.5112V37.5112Z" fill="#8F74F6"/>
<path d="M41.6667 47.9279H8.33333C7.7808 47.9279 7.25089 47.7084 6.86019 47.3177C6.46949 46.927 6.25 46.3971 6.25 45.8445C6.25 45.292 6.46949 44.7621 6.86019 44.3714C7.25089 43.9807 7.7808 43.7612 8.33333 43.7612H41.6667C42.2192 43.7612 42.7491 43.9807 43.1398 44.3714C43.5305 44.7621 43.75 45.292 43.75 45.8445C43.75 46.3971 43.5305 46.927 43.1398 47.3177C42.7491 47.7084 42.2192 47.9279 41.6667 47.9279Z" fill="#B2B1FF"/>
<path d="M30.8661 43.7612C31.1131 43.094 31.243 42.3892 31.25 41.6779C31.25 40.0203 30.5915 38.4305 29.4194 37.2584C28.2473 36.0863 26.6576 35.4279 25 35.4279C23.3424 35.4279 21.7527 36.0863 20.5806 37.2584C19.4085 38.4305 18.75 40.0203 18.75 41.6779C18.7571 42.3892 18.887 43.094 19.134 43.7612H30.8661Z" fill="#D8D8FF"/>
<path d="M37.2345 15.7977L34.2873 18.7468C36.3588 21.0332 37.5042 24.0093 37.5 27.0945C37.487 29.4667 36.8047 31.7871 35.5314 33.7887C34.2581 35.7902 32.4456 37.3917 30.3024 38.4088C30.9176 39.3885 31.2458 40.521 31.25 41.6779C31.2444 41.9627 31.2167 42.2466 31.1672 42.5271C34.2504 41.2859 36.8949 39.156 38.7645 36.408C40.6341 33.66 41.6443 30.4181 41.6667 27.0945C41.6727 22.9036 40.0888 18.8664 37.2345 15.7977V15.7977ZM19.6262 38.54C18.8334 38.2187 18.0702 37.8287 17.3454 37.3743C17.1286 37.4581 16.8991 37.5044 16.6667 37.5112H11.0966C13.1983 39.8605 15.8659 41.6334 18.8459 42.6612C18.785 42.3369 18.753 42.0078 18.75 41.6779C18.7561 40.5724 19.0587 39.4888 19.6262 38.54V38.54Z" fill="#B2B1FF"/>
</svg>
