<svg width="50" height="50" viewBox="0 0 50 50" fill="none" xmlns="http://www.w3.org/2000/svg">
<path d="M42.9687 37.2422C43.0365 37.9097 42.9653 38.5841 42.7596 39.2228C42.5538 39.8615 42.2181 40.4506 41.7734 40.9531C41.4341 41.3384 41.0172 41.6475 40.55 41.8603C40.0828 42.073 39.5759 42.1845 39.0625 42.1875H32.0312C29.875 42.1875 28.125 40.1875 28.125 37.7266V28.125C28.1286 28.05 28.1444 27.9761 28.1719 27.9063L25.5156 25.7812H24.5L21.875 27.9063C21.8867 27.9787 21.8867 28.0526 21.875 28.125V37.7266C21.875 40.1875 20.125 42.1875 17.9687 42.1875H10.9375C10.4255 42.1834 9.92005 42.0714 9.45426 41.8587C8.98848 41.646 8.5728 41.3374 8.23437 40.9531C7.78834 40.4513 7.45115 39.8624 7.24407 39.2237C7.037 38.585 6.96453 37.9103 7.03125 37.2422C7.86719 28.3672 11.3125 20.9141 16.0234 17.7891C16.5424 17.4287 17.1519 17.2208 17.7829 17.1891C18.4139 17.1573 19.0412 17.3029 19.5937 17.6094C20.3033 18.0185 20.8887 18.6124 21.2876 19.3277C21.6866 20.0431 21.8842 20.8532 21.8594 21.6719V22.9219L22.6406 22.2891V8.59375C22.6406 8.38655 22.7229 8.18784 22.8694 8.04132C23.016 7.89481 23.2147 7.8125 23.4219 7.8125C23.6291 7.8125 23.8278 7.89481 23.9743 8.04132C24.1208 8.18784 24.2031 8.38655 24.2031 8.59375V22.6562C24.2024 22.7716 24.176 22.8854 24.1261 22.9895C24.0761 23.0935 24.0037 23.1851 23.9141 23.2578L15.5234 30.1406L15.3437 30.2891C15.2053 30.4093 15.027 30.4734 14.8437 30.4688C14.7284 30.468 14.6146 30.4417 14.5105 30.3917C14.4065 30.3417 14.3149 30.2693 14.2422 30.1797C14.1127 30.0197 14.0515 29.8151 14.072 29.6103C14.0925 29.4055 14.1929 29.2171 14.3516 29.0859L20.3125 24.2188V21.6719C20.3334 21.1367 20.2104 20.6058 19.9561 20.1345C19.7019 19.6631 19.3259 19.2686 18.8672 18.9922C18.5641 18.819 18.2179 18.7359 17.8692 18.7525C17.5205 18.7691 17.1837 18.8848 16.8984 19.0859C12.5781 21.9609 9.375 28.9766 8.59375 37.3828C8.54501 37.8333 8.58919 38.2889 8.72357 38.7216C8.85794 39.1543 9.07966 39.5548 9.375 39.8984C9.56995 40.1223 9.8098 40.3027 10.079 40.4279C10.3482 40.553 10.6407 40.6202 10.9375 40.625H17.9687C19.2656 40.625 20.3125 39.3281 20.3125 37.7266V29.1328L16.8906 31.8672C16.812 31.9414 16.7187 31.9986 16.6168 32.0349C16.5149 32.0712 16.4066 32.086 16.2987 32.0783C16.1908 32.0706 16.0856 32.0406 15.99 31.9901C15.8943 31.9397 15.8101 31.8699 15.7428 31.7852C15.6755 31.7005 15.6265 31.6028 15.5989 31.4981C15.5713 31.3935 15.5658 31.2843 15.5826 31.1775C15.5995 31.0706 15.6383 30.9684 15.6967 30.8773C15.7551 30.7863 15.8318 30.7083 15.9219 30.6484L23.7344 24.3984C23.8708 24.2853 24.0416 24.222 24.2187 24.2188H25.7812C25.9575 24.2198 26.1282 24.2803 26.2656 24.3906L34.0781 30.6406C34.2391 30.7695 34.3426 30.9569 34.366 31.1617C34.3894 31.3666 34.3309 31.5725 34.2031 31.7344C34.1304 31.8264 34.0378 31.901 33.9323 31.9523C33.8268 32.0037 33.7111 32.0307 33.5937 32.0312C33.4175 32.0302 33.2468 31.9697 33.1094 31.8594L29.6875 29.125V37.7187C29.6875 39.3281 30.75 40.625 32.0312 40.625H39.0625C39.3593 40.6202 39.6518 40.553 39.921 40.4279C40.1902 40.3027 40.43 40.1223 40.625 39.8984C40.9203 39.5548 41.1421 39.1543 41.2764 38.7216C41.4108 38.2889 41.455 37.8333 41.4062 37.3828C40.625 28.9766 37.4453 21.9609 33.1172 19.0859C32.8303 18.885 32.4923 18.7695 32.1425 18.7529C31.7926 18.7363 31.4452 18.8193 31.1406 18.9922C30.6811 19.2683 30.3039 19.6624 30.0483 20.1337C29.7928 20.605 29.6682 21.1361 29.6875 21.6719V24.2188L35.6484 29.1016C35.8071 29.2327 35.9075 29.4212 35.928 29.6259C35.9485 29.8307 35.8873 30.0354 35.7578 30.1953C35.6836 30.2821 35.5913 30.3515 35.4874 30.3988C35.3834 30.446 35.2704 30.4699 35.1562 30.4688C34.9757 30.4714 34.8004 30.4074 34.6641 30.2891L34.4844 30.1406L26.0781 23.2578C25.9871 23.1859 25.9132 23.0946 25.8618 22.9905C25.8105 22.8865 25.783 22.7723 25.7812 22.6562V8.59375C25.7812 8.38655 25.8636 8.18784 26.0101 8.04132C26.1566 7.89481 26.3553 7.8125 26.5625 7.8125C26.7697 7.8125 26.9684 7.89481 27.1149 8.04132C27.2614 8.18784 27.3437 8.38655 27.3437 8.59375V22.2891L28.125 22.9219V21.6719C28.1002 20.8532 28.2978 20.0431 28.6967 19.3277C29.0957 18.6124 29.6811 18.0185 30.3906 17.6094C30.9431 17.3029 31.5704 17.1573 32.2015 17.1891C32.8325 17.2208 33.442 17.4287 33.9609 17.7891C38.6797 20.9141 42.125 28.3672 42.9687 37.2422Z" fill="#8F74F6"/>
<path d="M41.4062 37.3828C41.455 37.8333 41.4108 38.2889 41.2764 38.7216C41.1421 39.1543 40.9203 39.5548 40.625 39.8984C40.43 40.1223 40.1902 40.3027 39.921 40.4279C39.6518 40.553 39.3593 40.6202 39.0625 40.625H32.0312C30.7344 40.625 29.6875 39.3281 29.6875 37.7266V29.1328L33.1094 31.8672C33.2479 31.9747 33.4185 32.0325 33.5937 32.0313C33.7111 32.0307 33.8268 32.0037 33.9323 31.9523C34.0378 31.901 34.1304 31.8264 34.2031 31.7344C34.3309 31.5725 34.3894 31.3666 34.366 31.1617C34.3426 30.9569 34.2391 30.7695 34.0781 30.6406L34.4844 30.1406L34.6641 30.2891C34.8004 30.4074 34.9757 30.4714 35.1562 30.4688C35.2716 30.468 35.3854 30.4417 35.4895 30.3917C35.5935 30.3417 35.6851 30.2693 35.7578 30.1797C35.8873 30.0197 35.9485 29.8151 35.928 29.6103C35.9075 29.4055 35.8071 29.2171 35.6484 29.0859L29.6875 24.2188V21.6719C29.6666 21.1376 29.7888 20.6075 30.0416 20.1364C30.2943 19.6653 30.6684 19.2702 31.125 18.9922C31.4296 18.8193 31.777 18.7363 32.1269 18.7529C32.4767 18.7695 32.8147 18.885 33.1016 19.0859C37.4375 21.9609 40.625 28.9766 41.4062 37.3828ZM20.3125 29.125V37.7188C20.3125 39.3281 19.2656 40.625 17.9687 40.625H10.9375C10.6407 40.6202 10.3482 40.553 10.079 40.4279C9.8098 40.3027 9.56995 40.1223 9.375 39.8984C9.07966 39.5548 8.85794 39.1543 8.72357 38.7216C8.58919 38.2889 8.54501 37.8333 8.59375 37.3828C9.375 28.9766 12.5547 21.9609 16.8828 19.0859C17.1681 18.8848 17.5048 18.7691 17.8535 18.7525C18.2022 18.7359 18.5484 18.819 18.8516 18.9922C19.3131 19.2667 19.6923 19.6603 19.9494 20.1318C20.2064 20.6032 20.3319 21.1352 20.3125 21.6719V24.2188L14.3516 29.1016C14.1929 29.2327 14.0925 29.4212 14.072 29.626C14.0515 29.8307 14.1127 30.0354 14.2422 30.1953C14.3164 30.2821 14.4087 30.3515 14.5126 30.3988C14.6166 30.446 14.7296 30.4699 14.8437 30.4688C15.0243 30.4714 15.1995 30.4074 15.3359 30.2891L15.5156 30.1406L15.9219 30.6406C15.8318 30.7005 15.7551 30.7785 15.6967 30.8695C15.6383 30.9606 15.5995 31.0628 15.5826 31.1697C15.5658 31.2765 15.5713 31.3857 15.5989 31.4903C15.6265 31.5949 15.6755 31.6927 15.7428 31.7774C15.8101 31.8621 15.8943 31.9319 15.99 31.9823C16.0856 32.0328 16.1908 32.0628 16.2987 32.0705C16.4066 32.0782 16.5149 32.0634 16.6168 32.0271C16.7187 31.9907 16.812 31.9336 16.8906 31.8594L20.3125 29.125Z" fill="#8F74F6"/>
</svg>
