<svg width="50" height="50" viewBox="0 0 50 50" fill="none" xmlns="http://www.w3.org/2000/svg">
<path d="M39.8438 11.7205H10.1562V32.033H39.8438V11.7205Z" fill="#C5C4F9"/>
<path d="M40.625 8.59547H9.375C8.08058 8.59547 7.03125 9.75526 7.03125 11.186V38.8172C7.03125 40.248 8.08058 41.408 9.375 41.408H40.625C41.9194 41.408 42.9688 40.248 42.9688 38.8172V11.186C42.9688 9.75526 41.9194 8.59547 40.625 8.59547Z" fill="#C5C4F9"/>
<path d="M39.8438 11.7205H10.1562V32.033H39.8438V11.7205Z" fill="#C5C4F9"/>
<path d="M11.7188 37.5017C12.1502 37.5017 12.5 37.1519 12.5 36.7205C12.5 36.289 12.1502 35.9392 11.7188 35.9392C11.2873 35.9392 10.9375 36.289 10.9375 36.7205C10.9375 37.1519 11.2873 37.5017 11.7188 37.5017Z" fill="#C5C4F9"/>
<path d="M14.8438 37.5017C15.2752 37.5017 15.625 37.1519 15.625 36.7205C15.625 36.289 15.2752 35.9392 14.8438 35.9392C14.4123 35.9392 14.0625 36.289 14.0625 36.7205C14.0625 37.1519 14.4123 37.5017 14.8438 37.5017Z" fill="#C5C4F9"/>
<path d="M17.9688 37.5017C18.4002 37.5017 18.75 37.1519 18.75 36.7205C18.75 36.289 18.4002 35.9392 17.9688 35.9392C17.5373 35.9392 17.1875 36.289 17.1875 36.7205C17.1875 37.1519 17.5373 37.5017 17.9688 37.5017Z" fill="#C5C4F9"/>
<path d="M38.2812 38.283C39.1442 38.283 39.8438 37.5834 39.8438 36.7205C39.8438 35.8575 39.1442 35.158 38.2812 35.158C37.4183 35.158 36.7188 35.8575 36.7188 36.7205C36.7188 37.5834 37.4183 38.283 38.2812 38.283Z" fill="#C5C4F9"/>
<path d="M32.0312 38.283C32.8942 38.283 33.5938 37.5834 33.5938 36.7205C33.5938 35.8575 32.8942 35.158 32.0312 35.158C31.1683 35.158 30.4688 35.8575 30.4688 36.7205C30.4688 37.5834 31.1683 38.283 32.0312 38.283Z" fill="#C5C4F9"/>
<path fill-rule="evenodd" clip-rule="evenodd" d="M10.1654 22.9223H15.2819L17.833 18.9316L20.3986 26.9131L22.9496 22.9223H25.771L28.0662 16.9363L32.1595 28.9083L34.7251 22.9223H39.8346" fill="#C5C4F9"/>
<path d="M39.8438 11.7205H10.1562V32.033H39.8438V11.7205Z" fill="#8F74F6"/>
<path d="M38.2812 38.283C39.1442 38.283 39.8438 37.5834 39.8438 36.7205C39.8438 35.8575 39.1442 35.158 38.2812 35.158C37.4183 35.158 36.7188 35.8575 36.7188 36.7205C36.7188 37.5834 37.4183 38.283 38.2812 38.283Z" fill="#8F74F6"/>
<path d="M32.0312 38.283C32.8942 38.283 33.5938 37.5834 33.5938 36.7205C33.5938 35.8575 32.8942 35.158 32.0312 35.158C31.1683 35.158 30.4688 35.8575 30.4688 36.7205C30.4688 37.5834 31.1683 38.283 32.0312 38.283Z" fill="#8F74F6"/>
<path d="M9.375 7.81288C7.61314 7.81288 6.25 9.37054 6.25 11.1851V38.8187C6.25 40.6333 7.61314 42.1879 9.375 42.1879H40.625C42.3869 42.1879 43.75 40.6333 43.75 38.8187V11.1851C43.75 9.37054 42.3869 7.81288 40.625 7.81288H9.375ZM9.375 9.37538H40.625C41.46 9.37538 42.1875 10.1293 42.1875 11.1851V38.8187C42.1875 39.8745 41.46 40.6254 40.625 40.6254H9.375C8.53999 40.6254 7.8125 39.8745 7.8125 38.8187V11.1851C7.8125 10.1293 8.53999 9.37538 9.375 9.37538ZM10.1562 10.9379C9.94906 10.9379 9.75035 11.0202 9.60385 11.1667C9.45734 11.3132 9.37502 11.5119 9.375 11.7191V22.855C9.37197 22.8946 9.37197 22.9344 9.375 22.9741V32.0317C9.37502 32.2389 9.45734 32.4375 9.60385 32.584C9.75035 32.7306 9.94906 32.8129 10.1562 32.8129H39.8438C40.0509 32.8129 40.2496 32.7306 40.3962 32.584C40.5427 32.4375 40.625 32.2389 40.625 32.0317V22.9893C40.628 22.9497 40.628 22.9099 40.625 22.8703V11.7191C40.625 11.5119 40.5427 11.3132 40.3962 11.1667C40.2496 11.0202 40.0509 10.9379 39.8438 10.9379H10.1562V10.9379ZM10.9375 12.5004H39.0625V22.1409H34.726C34.5727 22.1404 34.4228 22.185 34.2947 22.2692C34.1667 22.3533 34.0662 22.4731 34.0057 22.6139L32.2418 26.7338L28.8055 16.6843C28.7505 16.5227 28.6439 16.3836 28.5023 16.2883C28.3607 16.1929 28.1917 16.1466 28.0212 16.1564C27.8712 16.1652 27.727 16.2172 27.6057 16.3059C27.4845 16.3947 27.3914 16.5165 27.3376 16.6569L25.235 22.1409H22.9492C22.8179 22.1407 22.6887 22.1736 22.5735 22.2365C22.4583 22.2995 22.3608 22.3904 22.29 22.501L20.636 25.095L18.576 18.6924C18.5307 18.5515 18.4462 18.4265 18.3324 18.3317C18.2187 18.237 18.0804 18.1765 17.9337 18.1573C17.7869 18.1381 17.6377 18.161 17.5034 18.2233C17.3692 18.2856 17.2554 18.3848 17.1753 18.5093L14.8529 22.1409H10.9375V12.5004ZM28.0243 19.2265L31.4209 29.1599C31.4723 29.3088 31.5675 29.4387 31.6941 29.5325C31.8206 29.6263 31.9725 29.6797 32.1299 29.6856C32.2873 29.6916 32.4428 29.6498 32.5761 29.5658C32.7093 29.4818 32.8141 29.3595 32.8766 29.2149L35.2417 23.7034H39.0625V31.2504H10.9375V23.7034H15.2832C15.414 23.7031 15.5426 23.67 15.6572 23.6071C15.7718 23.5441 15.8688 23.4535 15.9393 23.3433L17.5964 20.7493L19.6533 27.1519C19.6983 27.2936 19.7827 27.4194 19.8967 27.5148C20.0107 27.6101 20.1496 27.671 20.297 27.6902C20.4443 27.7094 20.5941 27.6862 20.7288 27.6233C20.8634 27.5604 20.9773 27.4604 21.0571 27.335L23.3765 23.7034H25.7721C25.93 23.7035 26.0842 23.6557 26.2144 23.5663C26.3446 23.477 26.4447 23.3503 26.5015 23.2029L28.0243 19.2265V19.2265ZM32.0312 34.3754C30.7461 34.3754 29.6875 35.434 29.6875 36.7191C29.6875 38.0043 30.7461 39.0629 32.0312 39.0629C33.3164 39.0629 34.375 38.0043 34.375 36.7191C34.375 35.434 33.3164 34.3754 32.0312 34.3754ZM38.2812 34.3754C36.9961 34.3754 35.9375 35.434 35.9375 36.7191C35.9375 38.0043 36.9961 39.0629 38.2812 39.0629C39.5664 39.0629 40.625 38.0043 40.625 36.7191C40.625 35.434 39.5664 34.3754 38.2812 34.3754ZM11.7188 35.9379C11.5115 35.9379 11.3128 36.0202 11.1663 36.1667C11.0198 36.3132 10.9375 36.5119 10.9375 36.7191C10.9375 36.9263 11.0198 37.125 11.1663 37.2715C11.3128 37.4181 11.5115 37.5004 11.7188 37.5004C11.926 37.5004 12.1247 37.4181 12.2712 37.2715C12.4177 37.125 12.5 36.9263 12.5 36.7191C12.5 36.5119 12.4177 36.3132 12.2712 36.1667C12.1247 36.0202 11.926 35.9379 11.7188 35.9379ZM14.8438 35.9379C14.6365 35.9379 14.4378 36.0202 14.2913 36.1667C14.1448 36.3132 14.0625 36.5119 14.0625 36.7191C14.0625 36.9263 14.1448 37.125 14.2913 37.2715C14.4378 37.4181 14.6365 37.5004 14.8438 37.5004C15.051 37.5004 15.2497 37.4181 15.3962 37.2715C15.5427 37.125 15.625 36.9263 15.625 36.7191C15.625 36.5119 15.5427 36.3132 15.3962 36.1667C15.2497 36.0202 15.051 35.9379 14.8438 35.9379ZM17.9688 35.9379C17.7615 35.9379 17.5628 36.0202 17.4163 36.1667C17.2698 36.3132 17.1875 36.5119 17.1875 36.7191C17.1875 36.9263 17.2698 37.125 17.4163 37.2715C17.5628 37.4181 17.7615 37.5004 17.9688 37.5004C18.176 37.5004 18.3747 37.4181 18.5212 37.2715C18.6677 37.125 18.75 36.9263 18.75 36.7191C18.75 36.5119 18.6677 36.3132 18.5212 36.1667C18.3747 36.0202 18.176 35.9379 17.9688 35.9379ZM32.0312 35.9379C32.472 35.9379 32.8125 36.2785 32.8125 36.7191C32.8125 37.1599 32.472 37.5004 32.0312 37.5004C31.5905 37.5004 31.25 37.1599 31.25 36.7191C31.25 36.2785 31.5905 35.9379 32.0312 35.9379ZM38.2812 35.9379C38.722 35.9379 39.0625 36.2785 39.0625 36.7191C39.0625 37.1599 38.722 37.5004 38.2812 37.5004C37.8405 37.5004 37.5 37.1599 37.5 36.7191C37.5 36.2785 37.8405 35.9379 38.2812 35.9379Z" fill="#2405E4"/>
</svg>
