<svg width="50" height="50" viewBox="0 0 50 50" fill="none" xmlns="http://www.w3.org/2000/svg">
<path d="M25 0C11.199 0 0 11.1991 0 25C0 38.8009 11.199 50 25 50C38.8009 50 50 38.8009 50 25C50 11.1991 38.8009 0 25 0ZM25 1.04167C38.238 1.04167 48.9583 11.7621 48.9583 25C48.9583 38.238 38.238 48.9583 25 48.9583C11.762 48.9583 1.04167 38.238 1.04167 25C1.04167 11.7621 11.762 1.04167 25 1.04167ZM13.0208 12.5041C12.9171 12.5041 12.8157 12.5351 12.7297 12.5931C12.6437 12.6511 12.577 12.7334 12.5381 12.8296C12.4992 12.9258 12.4899 13.0314 12.5114 13.1329C12.5328 13.2343 12.5841 13.3271 12.6587 13.3993L15.0472 15.7898L14.4938 16.3411C14.3962 16.4388 14.3413 16.5713 14.3413 16.7094C14.3413 16.8475 14.3962 16.98 14.4938 17.0776L15.9688 18.5547L15.8773 18.6483C14.9139 19.6117 14.9139 21.1842 15.8773 22.1476L16.2598 22.5301C16.2992 22.5918 16.3512 22.6445 16.4124 22.6847C16.4137 22.6847 16.4151 22.6847 16.4164 22.6847L18.1091 24.3774C18.1098 24.3774 18.1105 24.3774 18.1112 24.3774C18.1487 24.4321 18.1964 24.479 18.2515 24.5158L19.9483 26.2126C19.9874 26.2733 20.0387 26.3253 20.0989 26.3652C20.1002 26.3652 20.1016 26.3652 20.1029 26.3652L21.7895 28.0497C21.8284 28.1112 21.8797 28.1639 21.9401 28.2043C21.9408 28.2043 21.9415 28.2043 21.9421 28.2043L23.6328 29.895C23.6721 29.955 23.7233 30.0063 23.7834 30.0456H23.7854L25.4761 31.7383C25.5156 31.7976 25.5668 31.8481 25.6266 31.8868L27.0264 33.2886L26.0132 34.2997C25.9647 34.3481 25.9262 34.4055 25.8999 34.4688C25.8736 34.532 25.86 34.5998 25.8599 34.6683C25.8598 34.7367 25.8732 34.8046 25.8994 34.8679C25.9255 34.9312 25.9638 34.9887 26.0122 35.0372C26.0605 35.0857 26.118 35.1242 26.1812 35.1505C26.2444 35.1768 26.3122 35.1904 26.3807 35.1905C26.4492 35.1906 26.517 35.1772 26.5803 35.1511C26.6436 35.1249 26.7012 35.0866 26.7497 35.0382L28.0579 33.7301H28.0619C28.1175 33.6921 28.1652 33.6437 28.2023 33.5876C28.2037 33.5836 28.2051 33.5795 28.2064 33.5754L29.6061 32.1777L33.4757 36.0494L32.9264 36.5987C32.8764 36.6467 32.8365 36.7042 32.809 36.7678C32.7815 36.8314 32.767 36.8999 32.7663 36.9692C32.7656 37.0384 32.7787 37.1072 32.8049 37.1713C32.8311 37.2355 32.8699 37.2938 32.9189 37.3428C32.9679 37.3918 33.0261 37.4305 33.0903 37.4567C33.1545 37.4829 33.2232 37.496 33.2925 37.4953C33.3618 37.4946 33.4302 37.4801 33.4938 37.4526C33.5574 37.4251 33.6149 37.3852 33.6629 37.3352L34.5113 36.4868C34.5639 36.4507 34.6094 36.4051 34.6456 36.3525L36.3546 34.6456C36.4122 34.6063 36.4613 34.5557 36.499 34.4971L37.3413 33.6568C37.4169 33.5837 37.4687 33.4894 37.4897 33.3864C37.5107 33.2833 37.5001 33.1763 37.4591 33.0794C37.4182 32.9826 37.3488 32.9004 37.2603 32.8436C37.1717 32.7869 37.068 32.7583 36.9629 32.7616C36.8274 32.7659 36.699 32.8229 36.6048 32.9203L36.0555 33.4696L32.1859 29.598L33.6711 28.1128L35.0423 26.7415C35.1172 26.6683 35.1683 26.5742 35.1889 26.4715C35.2095 26.3688 35.1987 26.2623 35.1578 26.1659C35.1169 26.0694 35.0479 25.9875 34.9598 25.9309C34.8717 25.8743 34.7686 25.8455 34.6639 25.8484C34.5287 25.8522 34.4003 25.9083 34.3058 26.005L33.2926 27.0182L22.1415 15.8691C21.6598 15.3875 21.0262 15.1469 20.3918 15.1469C19.7575 15.1469 19.1218 15.3875 18.6401 15.8691L18.5486 15.9627L17.0736 14.4877C17.0242 14.4384 16.9655 14.3994 16.9009 14.3732C16.8362 14.347 16.7669 14.3341 16.6972 14.3351C16.5619 14.3373 16.4327 14.392 16.3371 14.4877L15.7837 15.0411L13.3952 12.6506C13.3456 12.6026 13.287 12.5649 13.2227 12.5397C13.1584 12.5146 13.0898 12.5025 13.0208 12.5041V12.5041ZM16.7053 15.6047L17.8121 16.7114L16.7053 17.8182L15.5986 16.7094L16.0746 16.2333C16.1356 16.1937 16.1876 16.1417 16.2272 16.0807L16.7053 15.6047ZM20.3898 16.1906C20.7549 16.1906 21.121 16.3339 21.405 16.6178L32.5562 27.7669L31.1076 29.2155C31.0985 29.224 31.0896 29.2328 31.0811 29.2419L29.2379 31.0852L27.7629 32.5602L26.6561 31.4534L28.125 29.9845C28.1999 29.9113 28.251 29.8172 28.2716 29.7145C28.2922 29.6118 28.2813 29.5053 28.2405 29.4089C28.1996 29.3124 28.1306 29.2305 28.0425 29.1739C27.9544 29.1173 27.8513 29.0885 27.7466 29.0914C27.6114 29.0952 27.483 29.1513 27.3885 29.248L25.9196 30.717L24.8128 29.6102L25.3601 29.0649C25.4357 28.9918 25.4875 28.8976 25.5085 28.7945C25.5295 28.6915 25.5189 28.5844 25.4779 28.4876C25.437 28.3907 25.3676 28.3085 25.2791 28.2518C25.1905 28.195 25.0868 28.1664 24.9817 28.1698C24.8465 28.1735 24.7181 28.2297 24.6236 28.3264L24.0763 28.8737L22.9696 27.7669L24.4385 26.3C24.5141 26.227 24.5658 26.1327 24.5869 26.0296C24.6079 25.9266 24.5972 25.8196 24.5563 25.7227C24.5153 25.6258 24.446 25.5436 24.3574 25.4869C24.2689 25.4301 24.1652 25.4015 24.0601 25.4049C23.9246 25.4092 23.7962 25.4661 23.702 25.5636L22.2331 27.0304L21.1283 25.9237L21.6736 25.3784C21.7492 25.3053 21.8009 25.211 21.822 25.108C21.843 25.0049 21.8323 24.8979 21.7914 24.801C21.7504 24.7042 21.6811 24.622 21.5925 24.5652C21.504 24.5085 21.4003 24.4799 21.2952 24.4832C21.1597 24.4875 21.0313 24.5445 20.9371 24.6419L20.3918 25.1872L19.2851 24.0824L20.752 22.6135C20.8268 22.5403 20.8779 22.4462 20.8985 22.3435C20.9191 22.2408 20.9083 22.1343 20.8674 22.0379C20.8266 21.9414 20.7576 21.8595 20.6695 21.8029C20.5814 21.7463 20.4782 21.7175 20.3735 21.7204C20.2384 21.7241 20.11 21.7803 20.0155 21.877L18.5486 23.3439L17.4418 22.2392L17.9891 21.6919C18.064 21.6187 18.1151 21.5246 18.1357 21.4219C18.1563 21.3192 18.1454 21.2127 18.1046 21.1162C18.0637 21.0198 17.9947 20.9379 17.9066 20.8813C17.8185 20.8246 17.7154 20.7959 17.6107 20.7987C17.4755 20.8025 17.3471 20.8587 17.2526 20.9554L16.7053 21.5027L16.6138 21.4091C16.0457 20.841 16.0457 19.9509 16.6138 19.3827L19.3766 16.6178C19.6607 16.3339 20.0247 16.1906 20.3898 16.1906ZM31.4494 30.3467L35.319 34.2183L34.2122 35.3251L30.3426 31.4534L31.4494 30.3467Z" fill="#8F74F6"/>
</svg>
